<svg id="Capa_1" data-name="Capa 1" xmlns="http://www.w3.org/2000/svg" xmlns:xlink="http://www.w3.org/1999/xlink" viewBox="0 0 1264.46 710.07"><defs><style>.cls-1{fill:none;}.cls-2{clip-path:url(#clip-path);}.cls-3{fill:#71b739;}.cls-4{fill:#de2085;}.cls-5{clip-path:url(#clip-path-2);}.cls-6{clip-path:url(#clip-path-3);}.cls-7{isolation:isolate;}.cls-8{clip-path:url(#clip-path-4);}.cls-9{clip-path:url(#clip-path-5);}.cls-10{clip-path:url(#clip-path-6);}.cls-11{fill:#792180;}.cls-12{fill:#ffcf02;}.cls-13{clip-path:url(#clip-path-7);}.cls-14{clip-path:url(#clip-path-8);}.cls-15{fill:#7a237e;}.cls-16{clip-path:url(#clip-path-9);}.cls-17{clip-path:url(#clip-path-10);}.cls-18{clip-path:url(#clip-path-11);}.cls-19{fill:#81bb3d;}</style><clipPath id="clip-path"><path class="cls-3" d="M148.44,500.86l-11.11,39q-20.85-17.58-26.81-39.22l11.1-39Q127.59,483.29,148.44,500.86Z"/></clipPath><clipPath id="clip-path-2"><path class="cls-4" d="M1209.89,378.82l-11.1,39q-18.68,35.26-60.79,40.86-50.79,6.78-90-23.65t-56.66-93.86Q983,311,984,286.23l11.11-39q-1,24.75,7.34,55,17.46,63.45,56.66,93.86t90,23.65Q1191.22,414.08,1209.89,378.82Z"/></clipPath><clipPath id="clip-path-3"><path class="cls-3" d="M92.66,370.19l11.11-39q-4.45,15.62.41,33.3A66.85,66.85,0,0,0,125,397.6q15.47,13.59,40,21.29t59.44,9.78q35,2.08,48.46,6.55t16.26,14.45a20.38,20.38,0,0,1,.74,6.68l-11.1,39a20.73,20.73,0,0,0-.75-6.68q-2.75-10-16.26-14.44t-48.46-6.56q-34.93-2.07-59.43-9.77t-40-21.3a66.8,66.8,0,0,1-20.84-33.11Q88.21,385.82,92.66,370.19Z"/></clipPath><clipPath id="clip-path-4" transform="translate(-48.46 -18.55)"><polygon class="cls-1" points="742.09 755.8 686.05 610.91 1270.77 525.8 1326.82 670.69 742.09 755.8"/></clipPath><clipPath id="clip-path-5" transform="translate(-48.46 -18.55)"><polygon class="cls-1" points="62.65 203.72 42.84 152.51 168.99 134.15 188.8 185.36 62.65 203.72"/></clipPath><clipPath id="clip-path-6" transform="translate(-48.46 -18.55)"><path d="M957.81,283.94l-.37,0a2.28,2.28,0,0,1-1.9-2.37,112.67,112.67,0,0,1,4-25.25l11.11-39h0a2.28,2.28,0,0,1,4.39,1.25v0a108.74,108.74,0,0,0-3.86,24.21,2.28,2.28,0,0,1-.09.51l-11.1,39A2.29,2.29,0,0,1,957.81,283.94Zm4-27h0Z"/></clipPath><clipPath id="clip-path-7" transform="translate(-48.46 -18.55)"><path class="cls-5" d="M1120,462.19c-27.07,0-51.71-8.49-73.43-25.35-26.4-20.47-45.73-52.45-57.45-95-5.58-20.27-8.08-39-7.43-55.64a2.34,2.34,0,0,1,.09-.54l11.1-39a2.29,2.29,0,0,1,4.48.72c-.63,16.19,1.81,34.44,7.26,54.25,11.45,41.63,30.24,72.81,55.85,92.66s55.22,27.61,88.3,23.2c27.18-3.63,47.06-17,59.08-39.67a2.28,2.28,0,0,1,4.21,1.69l-11.11,39a1.7,1.7,0,0,1-.18.44C1188.05,443,1167,457.12,1138.3,461A137.81,137.81,0,0,1,1120,462.19ZM986.27,286.6c-.59,16.11,1.85,34.27,7.27,54,11.46,41.63,30.25,72.8,55.86,92.66s55.22,27.6,88.29,23.19c27.1-3.61,46.94-16.89,59-39.46l6.88-24.17c-12.85,16.28-31,26.06-54.14,29.15-34.33,4.58-65.18-3.53-91.69-24.11s-45.74-52.46-57.46-95.06a205.72,205.72,0,0,1-7.16-40.14Z"/></clipPath><clipPath id="clip-path-8" transform="translate(-48.46 -18.55)"><path d="M872.15,329.74h0a2.29,2.29,0,0,1-2.17-1.74c-.42-1.71-.94-3.45-1.58-5.3a2.37,2.37,0,0,1,0-1.37l11.11-39a2.28,2.28,0,0,1,4.35-.12c.68,2,1.24,3.85,1.7,5.7a2.44,2.44,0,0,1,0,1.17l-11.11,39A2.29,2.29,0,0,1,872.15,329.74Z"/></clipPath><clipPath id="clip-path-9" transform="translate(-48.46 -18.55)"><path d="M304.42,504.52a2.29,2.29,0,0,1-2.19-2.91v0a17.56,17.56,0,0,0,.41-1.94,1.55,1.55,0,0,1,.06-.31l11.11-39a2.28,2.28,0,0,1,4.45.95,19.88,19.88,0,0,1-.55,2.57l-11.1,39v0A2.27,2.27,0,0,1,304.42,504.52Z"/></clipPath><clipPath id="clip-path-10" transform="translate(-48.46 -18.55)"><path class="cls-6" d="M278.78,497.63a2.34,2.34,0,0,1-.38,0,2.28,2.28,0,0,1-1.9-2.38,18.31,18.31,0,0,0-.67-5.94c-1.63-5.93-6.46-10.14-14.78-12.89-8.76-2.9-24.87-5.07-47.87-6.44-23.39-1.39-43.58-4.72-60-9.88-16.56-5.2-30.29-12.52-40.78-21.75A69.31,69.31,0,0,1,90.88,404.1c-3.34-12.14-3.48-23.76-.41-34.53l11.1-39h0a2.28,2.28,0,0,1,4.39,1.25h0c-2.84,10-2.69,20.75.42,32.07a64.89,64.89,0,0,0,20.14,32c10,8.8,23.19,15.81,39.15,20.83s35.86,8.3,58.88,9.67c23.74,1.42,39.78,3.6,49,6.66,9.74,3.22,15.71,8.61,17.75,16a22.94,22.94,0,0,1,.82,7.42,2.64,2.64,0,0,1-.08.49L281,496A2.28,2.28,0,0,1,278.78,497.63Zm-179-144-4.91,17.23h0c-2.83,10-2.69,20.75.42,32.07a64.92,64.92,0,0,0,20.15,32c10,8.81,23.18,15.82,39.14,20.83s35.87,8.31,58.89,9.67c23.73,1.43,39.77,3.61,49,6.67,8.49,2.8,14.12,7.26,16.77,13.27L287.62,456a18.6,18.6,0,0,0-.68-5.7c-1.63-5.92-6.47-10.14-14.78-12.88-8.76-2.9-24.87-5.07-47.88-6.45-23.39-1.39-43.57-4.71-60-9.87-16.57-5.21-30.29-12.53-40.79-21.76A69.38,69.38,0,0,1,102,365.09,73,73,0,0,1,99.76,353.59Zm-7.1,16.6h0Z"/></clipPath><clipPath id="clip-path-11" transform="translate(-48.46 -18.55)"><path class="cls-2" d="M137.33,542.15a2.3,2.3,0,0,1-1.47-.54c-14.2-12-23.47-25.54-27.54-40.35a2.33,2.33,0,0,1,0-1.23l11.11-39a2.35,2.35,0,0,1,2.21-1.65,2.27,2.27,0,0,1,2.18,1.67c3.83,13.9,12.6,26.72,26.09,38.08a2.29,2.29,0,0,1,.72,2.37l-11.11,39a2.27,2.27,0,0,1-1.52,1.56A2.22,2.22,0,0,1,137.33,542.15Zm-24.44-41.49c3.64,12.72,11.45,24.53,23.23,35.13l9.72-34.14c-11.31-9.79-19.37-20.63-24-32.31Z"/></clipPath></defs><path d="M1279.44,380.51l0-.18a.2.2,0,0,1,0-.07l-61.72-224.33a2.24,2.24,0,0,0-1.11-1.39,2.28,2.28,0,0,0-1.77-.18l-26.6,8.38,2.85-10a.17.17,0,0,1,0-.07,1.76,1.76,0,0,0,.06-.46.71.71,0,0,0,0-.14,3,3,0,0,0-.07-.51v0h0L1154.94,20.23a2.28,2.28,0,0,0-2.5-1.66l-89,11.86a2.26,2.26,0,0,0-1.6,1,2.15,2.15,0,0,0-.26.58s0,0,0,.06l-11.11,39a2.24,2.24,0,0,0,0,1.23l19.54,71a99.7,99.7,0,0,0-43-3.47c-35.53,4.74-60.38,20.37-73.85,46.48a92.43,92.43,0,0,0-6.63,16.85,2.77,2.77,0,0,0-.18.43l-11.1,39,0,.11a2.19,2.19,0,0,0-1.19,0l-26.95,8.48,2.86-10s0-.09,0-.13,0-.24,0-.36v-.22a1.49,1.49,0,0,0,0-.36,1.42,1.42,0,0,0,0-.2,2.78,2.78,0,0,0-.16-.4.67.67,0,0,0-.06-.12v0a134,134,0,0,0-42.11-43.65c-29.52-19-65-26-105.34-20.59-28.7,3.83-52.36,12.71-70.33,26.42-17.24,13.14-28.89,30-34.69,50.24a.94.94,0,0,1-.06.15s0,0,0,.06L646.06,291c-.27.93-.52,1.87-.76,2.82a118.5,118.5,0,0,0-3.54,30.85c0,3.24.22,6.56.51,9.92L633,337.46l2.86-10a.25.25,0,0,1,0-.08,3.11,3.11,0,0,0,.06-.44c0-.05,0-.1,0-.15a2.87,2.87,0,0,0-.07-.5.06.06,0,0,0,0,0h0l-.83-3c-10.88-39.57-31.38-69.29-60.92-88.34s-65-26-105.33-20.59c-28.7,3.82-52.37,12.71-70.33,26.41-17.24,13.15-28.9,30.06-34.7,50.29,0,0-.05.1-.07.16l0,.1-11.07,38.9c-.27.92-.51,1.84-.75,2.77-5.45,21.41-4.59,45.43,2.56,71.41l1.79,6.51q1.76,6.39,4,12.49l-12.91,4.07,2.85-10v0a2.52,2.52,0,0,0,.08-.54.92.92,0,0,0,0-.16,1.9,1.9,0,0,0-.05-.4.94.94,0,0,0,0-.16s0-.07,0-.11c-8.65-24.51-28-41.69-57.64-51.28l19.07-2.55a2.29,2.29,0,0,0,1.9-1.63l11.1-39s0-.08,0-.11a1.88,1.88,0,0,0,.05-.33,1.34,1.34,0,0,0,0-.2,1.84,1.84,0,0,0,0-.33l0-.2a.13.13,0,0,1,0-.06c-6.89-25-24.32-43.95-51.79-56.17-27.22-12.1-60.17-15.68-98-10.64-35.28,4.71-62.17,16.27-79.92,34.38-8.66,8.85-14.47,18.41-17.46,28.59a2.23,2.23,0,0,0-.18.45v0l-11.1,39c-3.07,10.77-2.93,22.39.41,34.52a69.31,69.31,0,0,0,21.53,34.22c8.28,7.29,18.61,13.36,30.72,18.17L97,445.7a2.26,2.26,0,0,0-1.6,1,2.55,2.55,0,0,0-.27.58s0,0,0,.06l-11.1,39a2.24,2.24,0,0,0,0,1.23c4.08,14.81,13.34,28.39,27.54,40.36a6,6,0,0,0,.66.38l23.55,13.19-1.3-19.67,6.73-2.12-2.85,10a2.27,2.27,0,0,0,.75,2.39C153.56,544,171.7,552.67,193,557.87c1.74.42,3.6.84,5.85,1.3l1.24.25c2,.39,3.91.74,5.78,1.05l1,.15c1.79.28,3.6.53,5.41.76l.91.11c1.89.22,3.84.42,5.95.59l1.32.11c2.27.17,4.27.29,6.14.37h.32q3,.12,6,.13h1.66c1.92,0,3.86,0,5.81-.08l1.17,0q2.91-.09,5.85-.29l.81,0c2.07-.14,4.14-.32,6.23-.52l1.43-.15c2.13-.22,4.26-.46,6.41-.75s4.1-.57,6.11-.89l1.7-.27c1.57-.26,3.12-.53,4.66-.81l1.41-.26c1.93-.36,3.83-.75,5.71-1.15l1.15-.26c1.52-.34,3-.69,4.51-1l1.59-.39c1.61-.41,3.21-.83,4.78-1.27l.63-.17q2.63-.75,5.17-1.56l1.39-.45c1.31-.43,2.61-.87,3.89-1.32l1.31-.46c1.63-.59,3.24-1.2,4.81-1.82l.72-.3c1.35-.55,2.68-1.11,4-1.69l1.32-.59c1.25-.57,2.49-1.15,3.7-1.75l.83-.4q2.18-1.08,4.26-2.23l1.62-.9c.41-.23.82-.45,1.22-.69.19-.11.38-.22.56-.34l.38-.23c.95-.57,1.88-1.15,2.81-1.73l.13-.09c.6-.38,1.2-.76,1.79-1.15.94-.62,1.85-1.26,2.76-1.9l.53-.37,1.21-.86c1-.72,1.92-1.47,2.86-2.21l.52-.4.87-.69c1.46-1.2,2.78-2.34,4-3.48,10.28-9.41,17.09-19.77,20.23-30.79l11.1-39a2.17,2.17,0,0,0,.08-.5,54.21,54.21,0,0,0,1.89-12l19.76-6.22-2.86,10a2.29,2.29,0,0,0,.24,1.79c12,20.29,29.23,37,51.1,49.73q4.81,2.81,9.78,5.25l.1.05c.74.37,1.49.71,2.24,1.06,22.82,10.84,48,16.33,75.3,16.33q7,0,14.24-.49,3.84-.25,7.77-.66c2.5-.25,5-.55,7.57-.89,1.46-.19,2.91-.4,4.35-.62.48-.08.95-.17,1.43-.24,1-.16,1.92-.31,2.87-.48l1.63-.31,2.61-.5,1.75-.38,2.43-.52,1.77-.42,2.37-.57,1.74-.46,2.32-.62c.59-.16,1.17-.34,1.75-.51.76-.21,1.52-.43,2.26-.66.58-.17,1.16-.36,1.73-.54l2.23-.71,1.69-.58c.73-.26,1.47-.5,2.2-.77l1.66-.61,2.17-.82,1.62-.65c.72-.29,1.43-.57,2.14-.87.54-.22,1.08-.46,1.61-.69l2.09-.91,1.59-.74,2-1c.53-.25,1.06-.52,1.59-.78l2-1,1.6-.85,1.89-1,1.62-.92c.45-.25.9-.49,1.34-.75l.91-.54C640.77,492.26,650.55,484.1,658,475a77.75,77.75,0,0,0,9.74-15,2.5,2.5,0,0,0,.15-.38l11.11-39a2.6,2.6,0,0,0,0-.4,1.94,1.94,0,0,0,0-.24h0a2.36,2.36,0,0,0,0-.37h0a2.24,2.24,0,0,0-.81-1.36.52.52,0,0,0-.1-.11l-26.57-18.79,5.15-.68a2.27,2.27,0,0,0,1.89-1.64l11.11-39s0-.08,0-.12a3.06,3.06,0,0,0,0-.32c0-.07,0-.14,0-.21a1.86,1.86,0,0,0,0-.33,1.25,1.25,0,0,0,0-.19.13.13,0,0,0,0-.06l-.85-3.11,6.71-2.12-2.85,10a2.21,2.21,0,0,0,0,1.17c.46,1.86.93,3.72,1.44,5.59l1.79,6.51c10.26,37.3,32.56,66.15,66.29,85.77,1.9,1.1,3.88,2.19,6,3.34l1.28.65.74.37q2.07,1.07,4.15,2.07l1.86.85.57.26c1.28.58,2.57,1.16,3.87,1.71l2.59,1.06c1.28.52,2.56,1,3.85,1.5.88.33,1.76.66,2.65,1,1.31.47,2.62.91,4,1.34l.39.13c.74.24,1.48.49,2.23.72,1.4.43,2.81.83,4.22,1.23l.78.22,1.66.46c1.69.44,3.38.84,5.09,1.24l.68.16,1,.23c2.26.5,4.57,1,6.86,1.36l1,.17.7.11c1.75.29,3.51.57,5.28.81l1.76.22.82.09c1.5.19,3,.36,4.51.51.79.08,1.58.14,2.37.2l.5,0c1.45.12,2.9.23,4.36.31,1,.06,2,.11,3,.15,1.46.06,2.92.11,4.39.14,1,0,2,0,3,0h.8c1.25,0,2.51,0,3.76,0h.71l2.19,0c1.68-.06,3.38-.14,5.07-.23l.92-.05c.52,0,1,0,1.57-.08l.51,0c1.23-.08,2.47-.19,3.71-.3l2.09-.18c.52,0,1-.08,1.57-.14,2.71-.27,5.39-.58,8-.92,2.79-.37,5.64-.82,8.46-1.32l.17,0c2.67-.47,5.39-1,8.2-1.65l.2,0c2.53-.57,5.12-1.22,7.72-1.94l.43-.11c2.41-.66,4.9-1.42,7.4-2.23l.52-.17c2.31-.76,4.69-1.61,7.08-2.53l.6-.22c2.21-.86,4.49-1.81,6.78-2.83l.65-.28c2.11-.95,4.3-2,6.49-3.11l.7-.35c2-1.05,4.13-2.19,6.23-3.4l1.34-.77c18.37-10.86,31.5-24.12,39-39.41a2.5,2.5,0,0,0,.15-.38l11.11-39c0-.07,0-.13,0-.2a2.18,2.18,0,0,0,0-.44,2.23,2.23,0,0,0,0-.37,2.9,2.9,0,0,0-.12-.42,2.49,2.49,0,0,0-.16-.33,2.13,2.13,0,0,0-.25-.34,2.4,2.4,0,0,0-.27-.28s-.07-.08-.11-.11L945,360.2l5.15-.69a2.28,2.28,0,0,0,1.89-1.63l10.74-37.73q.94,3.93,2.05,8c11.72,42.6,31,74.59,57.45,95.06q2,1.57,4.11,3.06c.62.44,1.25.86,1.87,1.29.77.52,1.53,1.07,2.3,1.58l1.09.68a116.24,116.24,0,0,0,64,18.75q4.41,0,8.91-.3c1.57-.11,3.16-.24,4.75-.41s3.09-.33,4.65-.54,3.34-.49,5-.79l1.6-.32c1.09-.22,2.18-.44,3.25-.69.59-.13,1.17-.29,1.75-.43,1-.26,2-.52,3-.81l1.59-.48c1.07-.33,2.14-.68,3.19-1.05l1.19-.42c1.28-.47,2.54-1,3.78-1.49l.42-.18a76.25,76.25,0,0,0,8.39-4.18,74.48,74.48,0,0,0,7.33-4.93l.7-.52c.86-.67,1.7-1.38,2.53-2.08l1.41-1.21c.69-.62,1.37-1.26,2-1.91s1.14-1.11,1.7-1.69,1.14-1.19,1.7-1.8,1.24-1.39,1.84-2.11c.48-.56,1-1.13,1.43-1.72.65-.81,1.28-1.65,1.9-2.5.4-.54.81-1.08,1.2-1.64.68-1,1.33-2,2-3,.31-.48.62-.95.92-1.43.15-.24.29-.48.43-.72l10,22.26,0,0a2.12,2.12,0,0,0,.33.51h0a2.47,2.47,0,0,0,.42.37l.15.09a1.92,1.92,0,0,0,.39.17l.16.06a2.25,2.25,0,0,0,.58.08h.31l6.23-.83L1209,445.68l-.26-15.86,57.7-7.69a2.29,2.29,0,0,0,1.9-1.63l11.1-39s0-.07,0-.1,0-.23,0-.35a1.15,1.15,0,0,0,0-.19A2,2,0,0,0,1279.44,380.51ZM179.76,348.93c-.34-.12-.64-.26-1-.39,1.06-.14,2.15-.25,3.35-.35l.55-.05c.89-.06,1.75-.09,2.6-.12h.1l.56,0,.72,0c1.3,0,2.53,0,3.58.07h.15c1.14.07,2.28.18,3.39.32l.58.1.55.1c.71.11,1.42.22,2.11.37l.76.19.47.13c.6.15,1.21.3,1.79.48.28.09.56.2.84.3l.36.13c.54.19,1.09.39,1.61.61l.95.44.2.09c.49.24,1,.47,1.46.73l1.08.64c.45.28.9.56,1.33.86q.35.24.69.51C196.25,353.18,186.58,351.47,179.76,348.93Zm53.55,114.72a2.28,2.28,0,0,0-1.32,0l-28.57,9,2.86-10a2.8,2.8,0,0,0,.08-.57v0h0a2.18,2.18,0,0,0-.1-.67,1.67,1.67,0,0,0-.08-.2,2.38,2.38,0,0,0-.2-.39l-.16-.21c0-.06-.09-.13-.15-.19l-.13-.1-.22-.15a1.72,1.72,0,0,0-.38-.2.54.54,0,0,0-.13-.07c-1.22-.41-2.41-.86-3.55-1.35a31.22,31.22,0,0,1-3.28-1.62c14.22,1.08,25.29,2.51,33.05,4.27,2.15.5,4.05,1,5.7,1.56a34.49,34.49,0,0,1,6.42,2.83A56.75,56.75,0,0,1,233.31,463.65Zm220.92-137.6c.25-.2.48-.4.73-.58s.53-.39.8-.58c.51-.36,1-.7,1.58-1l.32-.19c.17-.11.34-.22.52-.32l.62-.34c.48-.26,1-.51,1.47-.75l.69-.33q.84-.37,1.71-.72l.51-.21q1.14-.44,2.34-.81l.6-.17c.62-.19,1.25-.37,1.9-.53l.86-.21c.61-.14,1.24-.28,1.88-.4l.82-.17c.91-.16,1.84-.31,2.79-.44s1.69-.21,2.53-.3l.92-.07c.51,0,1-.1,1.54-.13,1.18-.08,2.43-.13,3.81-.14h.57c1.13,0,2.32,0,3.5.1l.64,0c1.2.08,2.3.19,3.35.33l.49.08c1.25.18,2.34.37,3.36.59s2,.49,3.2.83l.46.14c.26.08.53.19.8.28Zm111.46,89.57a80.78,80.78,0,0,1-28.93-1l59.5-7.93A95.65,95.65,0,0,1,565.69,415.62ZM791,287.79a1.8,1.8,0,0,0-.39.08l-34.1,10.73,2.85-10s0,0,0-.08a1.76,1.76,0,0,0,.06-.46.34.34,0,0,0,0-.1,2,2,0,0,0,0-.48s0,0,0,0a2.31,2.31,0,0,0-.29-.69l-.13-.15a1.64,1.64,0,0,0-.2-.26c-.06-.06-.13-.09-.19-.15l-.18-.12a2.12,2.12,0,0,0-.63-.29l0,0a2.16,2.16,0,0,0-.76,0h-.09l-9.14,1.22.73-.58.8-.58c.51-.35,1-.69,1.58-1l.31-.2.53-.32.62-.33c.48-.26,1-.51,1.46-.75l.7-.33c.56-.26,1.13-.5,1.71-.73l.51-.21q1.14-.42,2.34-.81l.6-.17c.62-.19,1.25-.36,1.9-.53l.86-.21c.61-.14,1.24-.28,1.87-.4l.83-.16q1.37-.25,2.79-.45c.85-.11,1.69-.21,2.52-.29l.94-.08c.51,0,1-.1,1.53-.13,1.18-.08,2.43-.13,3.82-.14h.56c1.15,0,2.31,0,3.5.1l.64,0c1.18.09,2.3.2,3.36.34l.48.07c1.25.18,2.34.37,3.37.6s2,.48,3.19.83l.46.13c.94.29,1.91.64,2.9,1l.53.22c1,.39,1.89.81,2.75,1.24l.41.22c1,.53,1.94,1,2.75,1.55.65.4,1.26.84,1.87,1.28Zm68.17,88.71a80.55,80.55,0,0,1-28.93-1l59.5-7.93Q876.69,374.14,859.14,376.5Zm100.6-71.24-5-18.06a193.7,193.7,0,0,0-7.19-21.27l12.75-4-2.85,10a2.35,2.35,0,0,0-.09.53A161.66,161.66,0,0,0,959.74,305.26Zm170.75,35.06c-28.42,3.79-48.09-15.63-60.11-59.33l-3.69-14.36a136.22,136.22,0,0,1-2.51-15.76l.62-.5.17-.13.51-.38c.53-.37,1.09-.73,1.66-1.08l.46-.29a30.36,30.36,0,0,1,2.75-1.4l.7-.3c1-.44,2-.8,2.89-1.1l.21-.07c1-.31,2.06-.61,3.35-.9l.86-.19c1.37-.29,2.54-.49,3.67-.65s2.61-.3,4.13-.41c.61-.05,1.21-.08,1.81-.1l.41,0c.32,0,.64,0,.95,0h0c.64,0,1.28,0,2,0h1.23c.75,0,1.49.07,2.22.12l.44,0,.46,0c1,.09,2,.2,3,.35l.57.1c.8.12,1.59.25,2.38.42l.62.14.41.1c.62.14,1.23.28,1.83.44l.74.22.42.13c.54.17,1.09.33,1.62.51l.9.33.25.09c.53.2,1,.39,1.56.61l1.15.5c.49.22,1,.45,1.48.7s.75.38,1.12.57,1,.52,1.43.79l1.1.65c.47.29.93.59,1.46.94l1,.67c.46.33.92.67,1.37,1l.23.17.76.59c.47.38.93.77,1.39,1.17l.33.28.58.5c.5.46,1,.94,1.49,1.42l.34.33.39.38c.61.62,1.21,1.27,1.81,1.93l20.79,75.59A53.17,53.17,0,0,1,1130.49,340.32Z" transform="translate(-48.46 -18.55)"/><g class="cls-7"><g class="cls-8"><path d="M746.58,628.4q-19.8,2.88-29.85,11.6-10.54,9.15-6.49,20.69a22.3,22.3,0,0,0,8.68,11,48.47,48.47,0,0,0,16.41,6.85,122.71,122.71,0,0,0,24.31,2.85q14.26.45,19.8,1.84c3.7.94,5.93,2.52,6.72,4.74a5.32,5.32,0,0,1-1.71,6.13q-2.78,2.49-9.53,3.47l-.81.11a32,32,0,0,1-14.12-1,12.88,12.88,0,0,1-8.36-7.8l-33.76,4.3q2.6,7.37,11.48,13.18t21.94,8.22a91.1,91.1,0,0,0,27.94.49c.78-.1,1.56-.2,2.33-.32q20.69-3,31.64-11.54,11.55-9,7.52-20.47-5.91-16.82-34.37-20a191.78,191.78,0,0,0-19.34-1q-10.85-.08-16.32-1.65c-3.66-1-5.89-2.72-6.71-5.05s-.18-4.33,1.86-6.18a15.25,15.25,0,0,1,8.27-3.45l.46-.06q14.68-1.86,18.24,8.21L809,648.92q-4.31-12.24-20.89-18t-39.53-2.82l-2,.28" transform="translate(-48.46 -18.55)"/><path d="M890,679.89l-.73.1q-18,2.29-26-20.25l-1.52-4.67q-5.49-19.32,10.79-21.69l.47-.07q12.45-1.57,19.29,4.51L904,671q-2.24,7.2-14,8.91m-34.6-65.35q-20,2.91-27.8,15.34-8,12.84-1,32.83Q834.08,684,850.29,694t36.8,7.33l1-.14q15.2-2.2,22.36-11.75l13.81,39.2L960.5,724,919.64,608l-31.31,4,.6,9.32q-14.46-9.18-32.24-6.9c-.45,0-.9.11-1.34.18" transform="translate(-48.46 -18.55)"/><path d="M939.46,605.42l19.13,54.31q5.29,15,17.93,21.79t31.71,4.35l1.22-.17q18.54-2.7,26-14.4l4.26,8.93,33.88-4.31-29.52-83.83-36.34,4.63,20.7,58.8q-2.88,6.87-14.61,8.58l-.81.11q-14.47,1.85-18.27-8.93l-19.18-54.46-36.13,4.6" transform="translate(-48.46 -18.55)"/><path d="M1130.85,650.81l-.72.09a17.28,17.28,0,0,1-9.25-1.12,9.17,9.17,0,0,1-5.36-5.35q-4.2-11.91,13.58-14.52l1-.13,10.51-1.34,4.72,13.41a12,12,0,0,1-4.72,5.54,22.29,22.29,0,0,1-9.74,3.42m-21.4-68.65q-20.6,3-31.65,11.94-11.64,9.4-7.37,21.56l36.13-4.61q-3.16-9,9-10.75l.59-.08q13.83-1.76,17.91,9.84l1.57,4.44-11.16,1.42c-1.12.14-2.22.29-3.29.45q-24,3.5-34.77,11.69-11.49,8.75-6.68,22.38,3.81,10.84,17.81,16.55a59.44,59.44,0,0,0,30.4,3.62l1.2-.17q16.93-2.46,23.48-12.45a33.63,33.63,0,0,0,6.08,7.08l36.13-4.61-.46-1.31q-6.87-5.52-11.15-17L1170.2,605q-5.15-13.59-20.75-19.78t-37.81-3.35l-2.19.29" transform="translate(-48.46 -18.55)"/><path d="M1253.65,633.54l-.67.09q-18,2.29-25.87-20l-1.58-4.82q-5.41-19.41,10.74-21.77l.49-.07q12-1.51,19.56,5.29l11.25,31.92q-2.5,7.71-13.92,9.37M1234.77,531l15,42.45a47.26,47.26,0,0,0-29.27-5.49l-1.33.18q-20.25,2.94-27.86,15.52-7.87,13-.86,32.89,7.45,21.15,23.6,31.07t36.85,7.29l1-.13q16.41-2.39,23.64-14l5,8.75,32.49-4.14-41.91-119L1234.77,531" transform="translate(-48.46 -18.55)"/></g></g><g class="cls-7"><g class="cls-9"><path d="M53.39,157l3,8.5-7.95,1,2.06,5.82,8-1,7,19.82q3.56,10,16.07,8.37l.53-.07a32.75,32.75,0,0,0,6.36-1.6l-2.16-6.07a22.71,22.71,0,0,1-3.36.77l-.33,0a7.26,7.26,0,0,1-4.22-.38,4.76,4.76,0,0,1-2.13-2.75l-6.93-19.53,8.54-1.1L75.82,163l-8.54,1.1-3-8.5L53.39,157" transform="translate(-48.46 -18.55)"/><path d="M78.75,147.28l17.64,49.65,10.87-1.4-8.88-25q1.7-4.5,7.94-5.42l.31,0a12.84,12.84,0,0,1,6.91.68,7.82,7.82,0,0,1,4,4.84l8,22.57,10.87-1.4-8.12-22.86q-4.76-12.74-20.23-10.74l-.44.06q-7.8,1.14-11.44,6.14l-6.58-18.49-10.86,1.4" transform="translate(-48.46 -18.55)"/><path d="M170,165.72,149.3,168.4a8.55,8.55,0,0,1,1.28-6.76q1.88-2.53,6.12-3.15l.29,0a13,13,0,0,1,7.79,1.11,11.18,11.18,0,0,1,5,5.58l.21.58m-15.76-13.5a22.76,22.76,0,0,0-9.91,3.67,13.68,13.68,0,0,0-5.57,7.43,15.38,15.38,0,0,0,.54,9.71l.34,1a20.18,20.18,0,0,0,10.87,11.7q8.08,3.88,18.42,2.54l.65-.08a28,28,0,0,0,9.62-3,14.25,14.25,0,0,0,6-5.87L178,176q-3.06,4.84-10.23,5.88l-.38,0a17.21,17.21,0,0,1-9.73-1.38,13,13,0,0,1-6.44-6.33l31.62-4.09-1.12-3.16a21.52,21.52,0,0,0-10-12.2q-7-3.87-16.89-2.59l-.55.08" transform="translate(-48.46 -18.55)"/></g></g><polygon class="cls-3" points="1074.69 155.15 1063.58 194.15 1028.55 66.83 1039.66 27.82 1074.69 155.15"/><path d="M1112,215h0a2.29,2.29,0,0,1-2.19-1.68L1074.81,86a2.24,2.24,0,0,1,0-1.23l11.1-39a2.37,2.37,0,0,1,2.21-1.65,2.29,2.29,0,0,1,2.19,1.67l35,127.33a2.24,2.24,0,0,1,0,1.23l-11.11,39A2.28,2.28,0,0,1,1112,215Zm-32.66-129.6,32.7,118.86,8.7-30.56-32.7-118.85Z" transform="translate(-48.46 -18.55)"/><polygon class="cls-4" points="1164.73 147.23 1153.62 186.23 909.36 263.11 920.46 224.1 1164.73 147.23"/><path d="M957.81,283.94a2.31,2.31,0,0,1-1.59-.65,2.28,2.28,0,0,1-.6-2.26l11.11-39a2.26,2.26,0,0,1,1.51-1.55L1212.5,163.6a2.29,2.29,0,0,1,2.88,2.8l-11.11,39a2.28,2.28,0,0,1-1.51,1.55L958.5,283.83A2.07,2.07,0,0,1,957.81,283.94Zm13-39.48-9.61,33.75L1200.22,203l9.61-33.75Z" transform="translate(-48.46 -18.55)"/><path class="cls-3" d="M1113.61,254.71c.69,0,1.37,0,2.05,0h1.27c.78,0,1.55.08,2.32.13l.93,0c1.06.1,2.12.21,3.16.36l.59.11c.83.13,1.67.27,2.49.44.36.07.72.17,1.08.25.64.15,1.29.3,1.92.47l1.18.35c.58.18,1.17.35,1.74.55l1.21.44c.55.21,1.09.41,1.63.64s.8.34,1.21.52l1.55.73,1.19.61,1.5.83c.39.22.77.45,1.15.68s1,.62,1.46.94.74.49,1.11.75,1,.71,1.44,1.07l1,.79c.49.4,1,.81,1.45,1.23.32.27.64.53,1,.82.52.47,1,1,1.55,1.48l.76.73c.76.77,1.51,1.57,2.24,2.4l11.1-39c-.73-.83-1.47-1.62-2.23-2.39-.25-.26-.51-.49-.76-.74-.51-.5-1-1-1.56-1.48l-.94-.82c-.48-.41-1-.83-1.46-1.22l-1-.8c-.48-.36-1-.72-1.45-1.06s-.73-.51-1.1-.75-1-.64-1.46-.94-.77-.46-1.15-.68-1-.57-1.51-.83-.78-.42-1.18-.61-1-.5-1.56-.73l-1.2-.53c-.54-.22-1.09-.43-1.63-.63s-.81-.31-1.22-.45c-.57-.19-1.15-.37-1.73-.54-.39-.12-.79-.25-1.19-.36-.63-.17-1.27-.32-1.92-.47l-1.08-.25c-.82-.17-1.65-.31-2.49-.44l-.58-.1c-1-.15-2.1-.27-3.17-.36l-.93-.06c-.77-.05-1.53-.1-2.31-.12h-1.26c-.69,0-1.37,0-2.07,0l-1.41.06-1.42.06-.45,0c-1.4.11-2.82.24-4.27.43s-2.59.41-3.84.68l-.89.19c-1.22.28-2.4.59-3.54,1l-.23.08c-1.06.35-2.08.75-3.07,1.17l-.75.32c-1,.47-2,1-2.95,1.51l-.09,0c-.14.09-.27.19-.41.27-.61.37-1.21.76-1.79,1.17-.26.18-.5.37-.74.55-.49.37-1,.75-1.42,1.14l-.71.62c-.47.44-.92.89-1.36,1.35l-.54.56c-.59.66-1.16,1.34-1.7,2.06-.08.11-.14.22-.22.32-.45.63-.89,1.27-1.3,1.94-.16.26-.31.53-.46.8-.31.54-.61,1.1-.9,1.67-.15.3-.29.6-.43.91-.28.59-.54,1.21-.79,1.84-.11.28-.23.56-.33.85-.34.92-.66,1.86-.94,2.84l-11.1,39c.28-1,.59-1.92.93-2.84.11-.29.22-.56.34-.85.24-.62.5-1.24.78-1.84.14-.3.29-.61.44-.9.28-.58.58-1.13.9-1.68l.45-.79c.42-.67.85-1.32,1.31-2l.21-.31q.81-1.08,1.71-2.07c.17-.19.36-.37.53-.56.44-.46.9-.91,1.37-1.34.23-.21.46-.42.7-.62.46-.4.94-.78,1.42-1.14.25-.19.49-.38.74-.55.58-.41,1.18-.8,1.79-1.17.17-.1.33-.22.5-.31a31.43,31.43,0,0,1,3-1.51l.75-.33c1-.42,2-.81,3.08-1.16l.23-.08c1.13-.37,2.32-.67,3.53-.95l.9-.2c1.24-.26,2.51-.49,3.84-.67s2.86-.33,4.26-.43c.63,0,1.25-.08,1.88-.11Z" transform="translate(-48.46 -18.55)"/><path d="M1076.66,281.41a2.72,2.72,0,0,1-.63-.08,2.29,2.29,0,0,1-1.57-2.82v0l11.1-39c.27-.95.59-1.93,1-3,.07-.21.16-.42.24-.62l.11-.28c.27-.67.54-1.32.84-2,.15-.32.3-.65.46-1,.31-.62.63-1.22,1-1.8l.12-.22c.12-.21.24-.42.37-.63.44-.72.91-1.41,1.39-2.09l.24-.34c.56-.75,1.16-1.48,1.84-2.23l.4-.42.18-.18c.48-.5,1-1,1.47-1.45l.77-.68c.49-.42,1-.83,1.52-1.23l.15-.11c.22-.16.43-.33.65-.48.62-.44,1.27-.86,1.93-1.26l.44-.29.22-.11a31.12,31.12,0,0,1,3-1.54l.8-.35c1.14-.49,2.2-.89,3.25-1.23l.25-.09c1.08-.35,2.3-.67,3.72-1l.93-.21c1.49-.31,2.77-.53,4-.7s2.79-.32,4.4-.44l.47,0,1,0,.82,0c.38,0,.76,0,1.13,0,.72,0,1.43,0,2.14,0h1.3c.81,0,1.61.07,2.4.13l.36,0,.62,0c1.11.09,2.21.22,3.29.37l.61.11c.88.13,1.75.28,2.61.46l.74.17.38.09c.68.16,1.35.31,2,.49l.89.26.36.11c.6.19,1.21.37,1.81.57l1,.37.26.1q.87.32,1.71.66l1.27.56c.55.24,1.09.5,1.63.76l1.24.64c.53.28,1.06.57,1.58.87s.8.47,1.2.72,1,.64,1.53,1,.78.51,1.16.78,1,.74,1.51,1.12l.22.17c.29.21.58.43.86.66.49.39,1,.81,1.46,1.23l.35.3c.23.2.46.39.69.6.55.49,1.09,1,1.62,1.54l.28.27.51.49c.79.8,1.57,1.63,2.33,2.49a2.29,2.29,0,0,1,.48,2.13l-11.11,39a2.28,2.28,0,0,1-3.9.88c-.71-.79-1.42-1.56-2.15-2.3l-.39-.38-.34-.32c-.49-.48-1-1-1.49-1.42l-.59-.51-.32-.27c-.46-.4-.92-.8-1.39-1.18l-.76-.58-.23-.17c-.46-.35-.91-.7-1.38-1s-.66-.45-1-.67c-.53-.35-1-.65-1.46-.94s-.74-.44-1.1-.65-1-.54-1.43-.79-.75-.39-1.13-.58-1-.47-1.48-.69-.78-.36-1.15-.51-1-.41-1.55-.6l-.25-.1-.9-.32c-.54-.19-1.08-.35-1.62-.51l-.42-.13-.74-.22c-.6-.16-1.22-.3-1.83-.45l-.42-.1L1126,258c-.79-.16-1.59-.3-2.38-.42l-.57-.1c-1-.14-2-.26-3-.34-.15,0-.3,0-.46,0l-.43,0c-.74-.05-1.47-.1-2.22-.12h-1.23c-.7,0-1.33,0-2,0h0l-1,0-.41,0-1.81.1c-1.53.12-2.88.25-4.13.42s-2.3.36-3.68.64l-.85.19c-1.29.3-2.39.59-3.35.9l-.21.07c-.93.31-1.87.66-2.89,1.1l-.7.31c-1,.47-1.94.93-2.76,1.4l-.45.29c-.57.34-1.13.7-1.66,1.08-.18.12-.35.25-.52.38l-.17.13c-.44.33-.88.68-1.3,1.05-.22.18-.44.37-.65.57-.43.4-.85.81-1.25,1.24l-.23.23-.27.28c-.59.65-1.1,1.27-1.57,1.9l-.2.3c-.42.57-.82,1.17-1.2,1.79-.1.16-.19.32-.28.49l-.15.25c-.29.5-.57,1-.83,1.55-.14.29-.28.57-.41.85-.26.56-.5,1.13-.73,1.72l-.12.29c-.07.17-.14.34-.2.51-.35,1-.64,1.84-.88,2.68h0A2.28,2.28,0,0,1,1076.66,281.41Zm39.48-29h.86c.81,0,1.61.08,2.4.13l.35,0,.62,0c1.11.1,2.21.22,3.29.38l.42.07.2,0c.87.14,1.74.29,2.6.46l.77.18.37.09c.66.15,1.33.31,2,.49l.87.26.37.11c.63.19,1.23.37,1.81.57l1,.37.25.09,1.71.67,1.2.53c.61.27,1.15.52,1.69.79s.83.42,1.24.63,1.06.58,1.58.88.81.47,1.2.71,1,.65,1.53,1,.8.53,1.16.79,1,.73,1.51,1.11l.22.17c.29.22.58.44.86.67.52.41,1,.84,1.52,1.27l.3.26.69.6c.54.49,1.08,1,1.62,1.54l.29.27v0l9.67-34c-.44-.47-.88-.93-1.33-1.38a4.89,4.89,0,0,0-.4-.39l-.32-.32c-.5-.48-1-1-1.5-1.42l-.58-.51-.32-.27c-.5-.43-.94-.81-1.39-1.17l-.76-.58-.23-.18-1.38-1c-.35-.25-.7-.48-1.05-.71s-.93-.61-1.4-.9l-1.09-.65c-.47-.27-.95-.53-1.43-.79l-1.13-.58c-.49-.24-1-.47-1.48-.69l-1.15-.5c-.51-.22-1-.41-1.55-.61l-.27-.1-.88-.32c-.55-.19-1.1-.35-1.66-.52l-.38-.11-.75-.23c-.6-.16-1.22-.3-1.83-.44l-.44-.11-.59-.13c-.78-.17-1.58-.3-2.38-.43l-.57-.09c-1-.15-2-.26-3-.35l-.47,0-.43,0c-.73-.05-1.47-.1-2.22-.12h-1.21c-.66,0-1.32,0-2,0-.34,0-.67,0-1,0l-.89,0-.84,0-.44.05c-1.51.11-2.86.25-4.12.41s-2.3.36-3.68.65l-.86.19c-1.28.29-2.38.59-3.34.89l-.21.08c-.94.31-1.88.66-2.89,1.1l-.71.3a30.36,30.36,0,0,0-2.75,1.4,1.39,1.39,0,0,1-.21.11,1.35,1.35,0,0,1-.24.18c-.58.35-1.13.7-1.66,1.08l-.53.39-.16.12c-.45.34-.88.69-1.3,1l-.65.57c-.44.4-.85.82-1.26,1.24l-.23.24-.27.28a23.7,23.7,0,0,0-1.56,1.9l-.2.29c-.42.58-.83,1.18-1.21,1.8l-.28.49-.14.24q-.44.76-.84,1.56l-.4.84c-.26.57-.5,1.14-.74,1.73l-.12.31c-.07.16-.13.32-.19.48-.36,1-.64,1.84-.88,2.68l-6.24,21.91.36-.34c.25-.23.51-.45.77-.67.49-.43,1-.84,1.52-1.23l.17-.12.63-.48c.62-.44,1.27-.85,1.93-1.25l.17-.11.36-.22a34.21,34.21,0,0,1,3.16-1.62l.73-.31c1.22-.52,2.28-.93,3.33-1.27l.25-.09c1.08-.34,2.29-.67,3.71-1l.94-.2c1.48-.31,2.75-.54,4-.7s2.78-.33,4.39-.45l1.94-.11.39,0,1.07,0h0c.7,0,1.38,0,2.06,0h.53Zm-2.53,2.28h0Z" transform="translate(-48.46 -18.55)"/><g class="cls-7"><path d="M957.81,283.94l-.37,0a2.28,2.28,0,0,1-1.9-2.37,112.67,112.67,0,0,1,4-25.25l11.11-39h0a2.28,2.28,0,0,1,4.39,1.25v0a108.74,108.74,0,0,0-3.86,24.21,2.28,2.28,0,0,1-.09.51l-11.1,39A2.29,2.29,0,0,1,957.81,283.94Zm4-27h0Z" transform="translate(-48.46 -18.55)"/><g class="cls-10"><g class="cls-7"><path class="cls-11" d="M968.92,242.65l-11.11,39a110.39,110.39,0,0,1,4-24.75l11.1-39a110.78,110.78,0,0,0-4,24.74" transform="translate(-48.46 -18.55)"/><path d="M957.81,283.94l-.37,0a2.28,2.28,0,0,1-1.9-2.37,112.67,112.67,0,0,1,4-25.25l11.11-39h0a2.28,2.28,0,0,1,4.39,1.25v0a108.74,108.74,0,0,0-3.86,24.21,2.28,2.28,0,0,1-.09.51l-11.1,39A2.29,2.29,0,0,1,957.81,283.94Zm11.11-41.29h0Z" transform="translate(-48.46 -18.55)"/></g></g></g><path class="cls-12" d="M1177.07,34.52l36.11,131.26L968.92,242.65q1.17-23.25,10.59-41.6,19.77-38.28,72.13-45.27,38.16-5.09,71.51,17.92l-35-127.32Z" transform="translate(-48.46 -18.55)"/><path d="M968.92,244.93a2.31,2.31,0,0,1-1.4-.47,2.27,2.27,0,0,1-.88-1.92c.8-15.83,4.45-30.14,10.85-42.53,13.47-26.11,38.32-41.75,73.85-46.49,24-3.19,46.82,1.84,68,15L1085.92,47a2.28,2.28,0,0,1,1.9-2.86l89-11.86a2.26,2.26,0,0,1,2.5,1.65l36.11,131.26a2.27,2.27,0,0,1-1.51,2.78L969.6,244.83A2.24,2.24,0,0,1,968.92,244.93Zm96.24-87.77a100.41,100.41,0,0,0-13.22.88c-34,4.53-57.65,19.35-70.4,44.06a97.32,97.32,0,0,0-10.13,37.38l239-75.22L1175.4,37,1091,48.29l34.33,124.81a2.26,2.26,0,0,1-.87,2.46,2.29,2.29,0,0,1-2.62,0C1104.1,163.33,1085.08,157.16,1065.16,157.16Z" transform="translate(-48.46 -18.55)"/><polygon class="cls-3" points="1142.77 310.25 1131.66 349.26 1105.32 253.52 1116.43 214.52 1142.77 310.25"/><path d="M1180.12,370.09h0a2.27,2.27,0,0,1-2.19-1.67l-26.34-95.74a2.24,2.24,0,0,1,0-1.23l11.1-39a2.28,2.28,0,0,1,2.19-1.66h0a2.27,2.27,0,0,1,2.18,1.67l26.34,95.74a2.33,2.33,0,0,1,0,1.23l-11.11,39A2.28,2.28,0,0,1,1180.12,370.09Zm-24-98,24,87.26,8.7-30.56-24-87.26Z" transform="translate(-48.46 -18.55)"/><polygon class="cls-3" points="1173.33 386.63 1162.22 425.63 1150.33 399.27 1161.44 360.27 1173.33 386.63"/><path d="M1210.67,446.47a2.27,2.27,0,0,1-2.07-1.34l-11.89-26.36a2.3,2.3,0,0,1-.12-1.57l11.11-39a2.28,2.28,0,0,1,2-1.65,2.31,2.31,0,0,1,2.24,1.33l11.89,26.36a2.3,2.3,0,0,1,.11,1.57l-11.1,39a2.28,2.28,0,0,1-2,1.65Zm-9.46-28.82,9,19.91,9.17-32.2-9-19.91Z" transform="translate(-48.46 -18.55)"/><polygon class="cls-4" points="1253.07 376 1241.96 415 1162.22 425.63 1173.33 386.63 1253.07 376"/><path d="M1210.67,446.47a2.29,2.29,0,0,1-2.19-2.91l11.11-39a2.27,2.27,0,0,1,1.89-1.64l79.75-10.63a2.28,2.28,0,0,1,2.49,2.88l-11.11,39a2.28,2.28,0,0,1-1.89,1.64L1211,446.45Zm12.89-39.22-9.74,34.22,74.82-10,9.74-34.22Z" transform="translate(-48.46 -18.55)"/><g class="cls-7"><path class="cls-4" d="M1209.89,378.82l-11.1,39q-18.68,35.26-60.79,40.86-50.79,6.78-90-23.65t-56.66-93.86Q983,311,984,286.23l11.11-39q-1,24.75,7.34,55,17.46,63.45,56.66,93.86t90,23.65Q1191.22,414.08,1209.89,378.82Z" transform="translate(-48.46 -18.55)"/><path d="M1120,462.19c-27.07,0-51.71-8.49-73.43-25.35-26.4-20.47-45.73-52.45-57.45-95-5.58-20.27-8.08-39-7.43-55.64a2.34,2.34,0,0,1,.09-.54l11.1-39a2.29,2.29,0,0,1,4.48.72c-.63,16.19,1.81,34.44,7.26,54.25,11.45,41.63,30.24,72.81,55.85,92.66s55.22,27.61,88.3,23.2c27.18-3.63,47.06-17,59.08-39.67a2.28,2.28,0,0,1,4.21,1.69l-11.11,39a1.7,1.7,0,0,1-.18.44C1188.05,443,1167,457.12,1138.3,461A137.81,137.81,0,0,1,1120,462.19ZM986.27,286.6c-.59,16.11,1.85,34.27,7.27,54,11.46,41.63,30.25,72.8,55.86,92.66s55.22,27.6,88.29,23.19c27.1-3.61,46.94-16.89,59-39.46l6.88-24.17c-12.85,16.28-31,26.06-54.14,29.15-34.33,4.58-65.18-3.53-91.69-24.11s-45.74-52.46-57.46-95.06a205.72,205.72,0,0,1-7.16-40.14Z" transform="translate(-48.46 -18.55)"/><g class="cls-13"><path class="cls-3" d="M1181.42,409.13q-13.92,8.12-32.32,10.56c-3.11.41-6.2.72-9.25.93q-45.15,3-80.74-24.58-39.21-30.41-56.66-93.86-8.31-30.21-7.34-55l-11.11,39q-1,24.75,7.34,54.95Q1008.8,404.63,1048,435q35.6,27.63,80.74,24.59,4.58-.31,9.26-.94,18.39-2.44,32.31-10.55,18-10.45,28.48-30.31l11.1-39Q1199.38,398.68,1181.42,409.13Z" transform="translate(-48.46 -18.55)"/><path d="M1120,462.2c-27,0-51.68-8.51-73.39-25.36-26.4-20.47-45.73-52.45-57.45-95-5.58-20.27-8.08-39-7.43-55.64a2.34,2.34,0,0,1,.09-.54l11.1-39a2.29,2.29,0,0,1,4.48.72c-.63,16.19,1.81,34.44,7.26,54.25,11.45,41.63,30.25,72.81,55.85,92.66,23.16,18,49.8,26.09,79.2,24.11,3-.2,6-.51,9.1-.91,11.91-1.59,22.5-5,31.47-10.27l1.15,2-1.15-2c11.55-6.72,20.83-16.61,27.61-29.4a2.28,2.28,0,0,1,4.21,1.69l-11.11,39a1.92,1.92,0,0,1-.18.45c-7.18,13.56-17,24.06-29.34,31.21A88.75,88.75,0,0,1,1138.3,461c-3.15.42-6.31.74-9.4.95S1122.93,462.2,1120,462.2ZM986.27,286.6c-.59,16.11,1.85,34.27,7.27,54,11.46,41.63,30.25,72.8,55.86,92.66,23.16,18,49.8,26.09,79.19,24.11,3-.2,6.05-.51,9.1-.92a84.35,84.35,0,0,0,31.48-10.26c11.47-6.68,20.72-16.5,27.49-29.2l6.88-24.16a73.91,73.91,0,0,1-21,18.29h0A88.93,88.93,0,0,1,1149.4,422c-3.14.42-6.31.74-9.4.95-30.54,2.06-58.22-6.38-82.29-25.06-26.41-20.48-45.74-52.46-57.46-95.06a205.72,205.72,0,0,1-7.16-40.14Z" transform="translate(-48.46 -18.55)"/></g></g><path class="cls-12" d="M995.11,247.23l244.7-77,61.72,224.33-79.75,10.63-11.89-26.36q-18.66,35.26-60.79,40.87-50.79,6.76-90-23.65t-56.66-93.86Q994.14,272,995.11,247.23Zm196.11,81.57-26.34-95.73q-18.24-20.68-47.72-16.77-41.06,5.47-28.38,64.49l3.72,14.45q18.4,66.92,62.62,61,29.46-3.93,36.1-27.47" transform="translate(-48.46 -18.55)"/><path d="M1131.14,423.19c-27.08,0-51.71-8.49-73.43-25.35-26.41-20.48-45.74-52.46-57.46-95.06-5.57-20.26-8.07-39-7.42-55.64a2.29,2.29,0,0,1,1.59-2.09l244.71-77a2.23,2.23,0,0,1,1.77.17,2.25,2.25,0,0,1,1.11,1.4L1303.73,394a2.28,2.28,0,0,1-1.9,2.86l-79.75,10.63a2.28,2.28,0,0,1-2.38-1.32l-10-22.25c-12.91,21.67-33.16,34.47-60.27,38.08A137.55,137.55,0,0,1,1131.14,423.19ZM997.33,248.92c-.41,15.79,2,33.49,7.32,52.65,11.45,41.63,30.24,72.81,55.85,92.66s55.22,27.61,88.3,23.2c27.18-3.63,47.06-17,59.08-39.67a2.27,2.27,0,0,1,4.09.12l11.19,24.82,75.47-10.07-60.39-219.52ZM1148.13,359c-26.85,0-46.28-21.21-57.83-63.18l-3.72-14.48c-5.15-24-3.73-41.78,4.2-53.05,5.57-7.9,14.34-12.7,26.08-14.27,20.35-2.71,37.08,3.18,49.74,17.52a2.38,2.38,0,0,1,.48.9l26.34,95.74a2.3,2.3,0,0,1,0,1.22c-4.66,16.57-17.45,26.37-38,29.11A55.6,55.6,0,0,1,1148.13,359ZM1126.42,218a68,68,0,0,0-9,.61c-10.43,1.39-18.16,5.56-23,12.38-7.17,10.18-8.34,26.8-3.5,49.37l3.7,14.36c12,43.7,31.69,63.12,60.11,59.33,18.58-2.47,29.72-10.72,34-25.21l-26-94.6C1153.05,223.3,1141.08,218,1126.42,218Z" transform="translate(-48.46 -18.55)"/><polygon class="cls-4" points="883.61 235.7 872.51 274.7 795.33 298.98 806.44 259.98 883.61 235.7"/><path d="M843.79,319.82a2.29,2.29,0,0,1-2.2-2.91l11.11-39a2.29,2.29,0,0,1,1.51-1.56l77.18-24.28a2.28,2.28,0,0,1,2.87,2.8l-11.1,39a2.28,2.28,0,0,1-1.51,1.55l-77.18,24.28A2.25,2.25,0,0,1,843.79,319.82Zm13-39.48-9.61,33.75,72-22.64,9.61-33.76Z" transform="translate(-48.46 -18.55)"/><g class="cls-7"><path d="M872.15,329.74h0a2.29,2.29,0,0,1-2.17-1.74c-.42-1.71-.94-3.45-1.58-5.3a2.37,2.37,0,0,1,0-1.37l11.11-39a2.28,2.28,0,0,1,4.35-.12c.68,2,1.24,3.85,1.7,5.7a2.44,2.44,0,0,1,0,1.17l-11.11,39A2.29,2.29,0,0,1,872.15,329.74Z" transform="translate(-48.46 -18.55)"/><g class="cls-14"><g class="cls-7"><path class="cls-11" d="M883.26,288.45l-11.11,39c-.47-1.91-1-3.74-1.63-5.5l11.11-39c.6,1.76,1.16,3.59,1.63,5.5" transform="translate(-48.46 -18.55)"/><path d="M872.15,329.74h0a2.29,2.29,0,0,1-2.17-1.74c-.42-1.71-.94-3.45-1.58-5.3a2.37,2.37,0,0,1,0-1.37l11.11-39a2.28,2.28,0,0,1,4.35-.12c.68,2,1.24,3.85,1.7,5.7a2.44,2.44,0,0,1,0,1.17l-11.11,39A2.29,2.29,0,0,1,872.15,329.74Z" transform="translate(-48.46 -18.55)"/></g></g></g><polygon class="cls-15" points="836.47 275.94 825.36 314.94 823.7 308.9 834.8 269.9 836.47 275.94"/><path d="M873.82,335.77h0a2.26,2.26,0,0,1-2.19-1.67l-1.66-6a2.24,2.24,0,0,1,0-1.23l11.11-39a2.35,2.35,0,0,1,2.2-1.66,2.28,2.28,0,0,1,2.19,1.67l1.66,6a2.33,2.33,0,0,1,0,1.23l-11.11,39A2.28,2.28,0,0,1,873.82,335.77Z" transform="translate(-48.46 -18.55)"/><path class="cls-3" d="M838.18,257.59c-.94-.59-1.92-1.13-2.91-1.64l-.43-.22c-1-.48-1.92-.92-2.91-1.33l-.56-.22c-1-.39-2-.76-3.06-1.08l-.49-.14c-1.1-.33-2.21-.63-3.36-.87h0c-1.14-.25-2.32-.45-3.5-.62l-.51-.07c-1.14-.16-2.31-.27-3.5-.35l-.66,0c-1.2-.07-2.41-.11-3.64-.11h-.58c-1.3,0-2.61,0-3.95.14h0c-.56,0-1.13.09-1.69.15l-.84.07c-.86.08-1.72.18-2.6.3s-2,.29-2.89.46l-.86.17c-.67.13-1.32.27-2,.42l-.9.22c-.68.17-1.34.36-2,.55l-.62.19c-.84.26-1.67.55-2.47.85l-.54.22c-.61.25-1.22.5-1.81.77l-.74.35c-.53.26-1,.52-1.56.8l-.67.36-.32.18c-.2.11-.38.25-.57.37-.59.35-1.15.72-1.7,1.1l-.86.62c-.52.39-1,.79-1.51,1.21l-.77.65c-.54.5-1.06,1-1.57,1.54l-.47.48c-.65.71-1.26,1.44-1.84,2.2-.15.19-.28.4-.42.59-.42.59-.84,1.19-1.22,1.82-.19.29-.36.59-.53.88-.33.57-.64,1.14-.94,1.74l-.48,1c-.29.63-.57,1.28-.83,1.94-.12.3-.25.59-.36.9-.36,1-.7,2-1,3l-11.11,39q.45-1.55,1-3c.12-.31.25-.61.37-.91.26-.66.53-1.3.83-1.93.15-.33.31-.66.47-1,.3-.59.62-1.17.94-1.73.18-.3.35-.6.53-.89.39-.62.8-1.22,1.23-1.81.14-.2.27-.4.41-.59a27.83,27.83,0,0,1,1.84-2.2c.15-.17.32-.32.47-.48.51-.53,1-1.05,1.58-1.54.25-.23.51-.44.76-.66.49-.41,1-.81,1.51-1.2l.86-.62c.55-.39,1.12-.75,1.7-1.11.3-.18.59-.37.9-.54s.44-.25.66-.37c.51-.27,1-.54,1.56-.79l.74-.35c.59-.27,1.2-.53,1.82-.77l.54-.22c.8-.31,1.62-.59,2.46-.86l.63-.18c.65-.2,1.32-.38,2-.55l.89-.22c.64-.15,1.3-.29,2-.42L789,291c.95-.17,1.91-.33,2.9-.46s1.74-.22,2.59-.31l.76-.06c.59-.06,1.19-.11,1.78-.15,1.34-.09,2.66-.13,4-.15h.59c1.23,0,2.44,0,3.63.1l.67,0c1.18.09,2.35.2,3.49.35l.51.08c1.19.17,2.36.37,3.5.62h0c1.14.25,2.26.55,3.36.88l.48.14c1,.32,2.06.68,3.06,1.07l.56.23c1,.41,2,.84,2.92,1.32l.43.22c1,.52,2,1.06,2.91,1.65q11.48,7.15,16.71,20.94l11.1-39Q849.67,264.76,838.18,257.59Z" transform="translate(-48.46 -18.55)"/><path d="M843.79,319.82a2.29,2.29,0,0,1-2.14-1.48c-3.28-8.66-8.59-15.33-15.78-19.81-.81-.5-1.72-1-2.75-1.55l-.41-.21c-.86-.43-1.79-.85-2.75-1.25l-.53-.21c-1-.39-2-.73-2.9-1l-.46-.14c-1.17-.34-2.21-.62-3.2-.83s-2.11-.41-3.36-.59l-.48-.08q-1.59-.21-3.36-.33l-.64,0c-1.19-.07-2.36-.09-3.5-.1H801c-1.39,0-2.64.06-3.83.14l-1.52.13-.94.08q-1.24.12-2.52.3c-.95.12-1.88.28-2.79.44l-.83.16c-.63.13-1.26.26-1.88.41-.29.07-.57.13-.85.21-.65.16-1.28.34-1.91.53l-.59.17q-1.2.38-2.34.81l-.51.21q-.87.35-1.71.72l-.7.33c-.5.24-1,.49-1.46.75l-.63.34-.52.32-.31.19c-.54.33-1.07.67-1.59,1l-.8.58c-.48.36-.94.73-1.4,1.11l-.17.15c-.18.15-.36.3-.53.46-.51.46-1,.94-1.46,1.43l-.44.44c-.59.65-1.17,1.33-1.7,2l-.38.54c-.4.55-.79,1.11-1.15,1.69l-.39.66-.09.16c-.31.53-.6,1.07-.88,1.62-.15.3-.3.6-.45.92-.27.58-.53,1.19-.78,1.8l-.13.35c-.07.17-.14.33-.21.51-.37,1-.68,1.94-.93,2.83h0a2.28,2.28,0,1,1-4.39-1.25v0l11.1-39c.29-1,.63-2.06,1-3.17.08-.22.17-.44.26-.66l.12-.3c.28-.7.57-1.39.89-2.06.16-.34.33-.69.5-1,.32-.63.66-1.25,1-1.85l.08-.15.48-.8q.63-1,1.32-2l.14-.2c.1-.14.19-.28.3-.42.62-.82,1.29-1.62,2-2.37l.35-.36L777,261c.55-.56,1.11-1.12,1.7-1.65.2-.19.42-.37.63-.55l.18-.15q.79-.68,1.62-1.29c.3-.23.61-.45.92-.67.59-.41,1.2-.8,1.82-1.18l.17-.11a4.92,4.92,0,0,1,.45-.28l.25-.14.61-.34.18-.1c.54-.29,1.1-.57,1.66-.84.28-.14.53-.26.79-.37.62-.29,1.26-.56,1.91-.82l.57-.23c.84-.32,1.71-.62,2.59-.9l.66-.19c.68-.21,1.38-.4,2.09-.58l.94-.23,2-.44.89-.17q1.47-.27,3-.48c.9-.12,1.79-.22,2.67-.31l1.18-.1c.47,0,1-.09,1.42-.12h.16c1.12-.08,2.46-.13,3.94-.14h.6c1.21,0,2.49,0,3.77.11l.69,0c1.31.09,2.5.21,3.64.37l.53.08c1.36.19,2.55.4,3.66.64s2.28.55,3.55.92l.51.15c1,.33,2.14.71,3.22,1.14l.59.23c1.1.46,2.11.91,3.08,1.4l.45.23c1.14.59,2.15,1.16,3.07,1.74,8.06,5,14,12.44,17.64,22.06a2.33,2.33,0,0,1,.06,1.43l-11.11,39a2.27,2.27,0,0,1-2.1,1.65Zm-42.2-32.21c1.21,0,2.45,0,3.7.11l.69,0c1.28.09,2.5.21,3.64.36l.54.08c1.36.2,2.55.41,3.66.65s2.27.54,3.55.92l.51.15c1,.32,2.13.7,3.21,1.13l.6.24c1.07.44,2.1.91,3.07,1.39l.45.24c1.15.59,2.15,1.16,3.07,1.73a42,42,0,0,1,15,16.26l9.19-32.28A38.65,38.65,0,0,0,837,259.53h0c-.81-.51-1.71-1-2.75-1.55l-.4-.21c-.86-.44-1.77-.85-2.76-1.26l-.53-.21c-1-.38-1.95-.73-2.9-1l-.45-.13c-1.17-.35-2.21-.62-3.2-.84s-2.12-.41-3.37-.59l-.48-.07c-1-.14-2.15-.25-3.35-.34l-.65,0c-1.19-.07-2.39-.08-3.49-.1h-.57c-1.39,0-2.64.06-3.82.14h-.15l-1.18.11-1.13.1c-.84.08-1.68.18-2.53.29s-1.87.28-2.78.45l-.83.16c-.64.12-1.26.26-1.88.4l-.86.21c-.64.16-1.28.34-1.9.53l-.6.17c-.79.25-1.57.52-2.33.81l-.51.21c-.59.23-1.16.47-1.72.73l-.66.31c-.53.26-1,.51-1.5.77l-1.11.62-.35.23c-.54.33-1.07.67-1.58,1l-.8.58c-.48.36-1,.74-1.4,1.12l-.19.16c-.17.15-.35.29-.52.45-.5.45-1,.93-1.45,1.42l-.44.44c-.6.65-1.17,1.34-1.71,2l-.38.55c-.39.54-.78,1.1-1.14,1.68-.14.22-.27.45-.39.67l-.09.15c-.31.54-.61,1.07-.88,1.62-.16.3-.31.61-.45.91-.28.6-.53,1.21-.78,1.82l-.14.34c-.07.17-.14.34-.2.51-.37,1-.68,1.93-.94,2.84l-6.13,21.53q.46-.47,1-.9l.65-.57.17-.14c.52-.44,1.06-.87,1.61-1.29.31-.22.61-.45.93-.66.58-.41,1.19-.8,1.81-1.18l.27-.17c.23-.14.45-.28.69-.41s.34-.2.52-.29l.19-.1c.54-.29,1.09-.58,1.65-.85l.79-.37c.62-.28,1.26-.55,1.91-.81l.58-.23c.84-.32,1.7-.62,2.59-.9l.66-.2c.68-.2,1.37-.39,2.08-.58l.94-.22c.67-.16,1.35-.3,2-.44l.9-.18c1-.17,2-.34,3-.47s1.79-.23,2.67-.32l1-.08,1.63-.14c1.27-.08,2.6-.13,4.08-.15h.67Z" transform="translate(-48.46 -18.55)"/><polygon class="cls-3" points="936.82 313.38 925.71 352.38 749.37 375.89 760.47 336.89 936.82 313.38"/><path d="M797.82,396.73a2.29,2.29,0,0,1-2.19-2.91l11.11-39a2.26,2.26,0,0,1,1.89-1.64L985,329.67a2.28,2.28,0,0,1,2.5,2.88l-11.11,39a2.29,2.29,0,0,1-1.89,1.64L798.12,396.71Zm12.89-39.22L801,391.73l171.41-22.86,9.75-34.22Z" transform="translate(-48.46 -18.55)"/><polygon class="cls-4" points="733.01 283.1 721.9 322.1 624.19 352.85 635.3 313.85 733.01 283.1"/><path d="M672.65,373.68a2.26,2.26,0,0,1-1.59-.64,2.29,2.29,0,0,1-.61-2.26l11.11-39a2.3,2.3,0,0,1,1.51-1.55l97.71-30.75a2.29,2.29,0,0,1,2.27.54,2.32,2.32,0,0,1,.61,2.26l-11.11,39a2.28,2.28,0,0,1-1.51,1.55l-97.71,30.75A2.24,2.24,0,0,1,672.65,373.68Zm13-39.47L676,368l92.5-29.11,9.61-33.75Z" transform="translate(-48.46 -18.55)"/><path class="cls-3" d="M683.75,332.4q-8.13-34.54-.81-63.38.36-1.39.75-2.76l-11.11,39c-.26.91-.51,1.83-.75,2.75a115.8,115.8,0,0,0-3.46,30.26,141.69,141.69,0,0,0,1.17,16.21c.18,1.38.38,2.76.6,4.16.65,4.18,1.49,8.44,2.51,12.75h0Z" transform="translate(-48.46 -18.55)"/><path d="M672.65,373.68h-.06a2.26,2.26,0,0,1-2.16-1.75c-1-4.37-1.88-8.71-2.54-12.93-.23-1.41-.43-2.82-.61-4.22a144,144,0,0,1-1.19-16.47,118.93,118.93,0,0,1,3.53-30.85c.25-.95.5-1.88.76-2.82l11.1-38.95s0,0,0-.05a2.28,2.28,0,0,1,4.39,1.25h0c-.26.89-.5,1.79-.73,2.69-4.77,18.74-4.5,39.7.82,62.3a2.32,2.32,0,0,1,0,1.14l-11.11,39A2.28,2.28,0,0,1,672.65,373.68Zm4.55-76.33-2.43,8.54q-.37,1.33-.72,2.7a114.19,114.19,0,0,0-3.4,29.67,139.29,139.29,0,0,0,1.16,15.93c.17,1.37.37,2.73.58,4.11.19,1.18.39,2.37.6,3.56l8.41-29.52A153.48,153.48,0,0,1,677.2,297.35Z" transform="translate(-48.46 -18.55)"/><path class="cls-12" d="M786.87,191.09q60-8,103.8,20.24a131.2,131.2,0,0,1,41.4,42.92l-77.18,24.28q-5.22-13.77-16.71-20.94-14.14-8.83-35.22-6-39,5.19-33.79,51.73l12.29-1.64L683.75,332.4q-8.13-34.54-.81-63.38,8.07-31.66,34.68-52T786.87,191.09Z" transform="translate(-48.46 -18.55)"/><path d="M683.75,334.68a2.21,2.21,0,0,1-1.12-.3,2.3,2.3,0,0,1-1.1-1.46c-5.49-23.32-5.76-45-.8-64.46,5.48-21.53,17.43-39.44,35.51-53.22s41.63-22.59,70.33-26.42c40.37-5.38,75.82,1.55,105.34,20.6A134.07,134.07,0,0,1,934,253.07a2.27,2.27,0,0,1-1.26,3.35l-77.18,24.29a2.29,2.29,0,0,1-2.82-1.37c-3.28-8.67-8.59-15.33-15.78-19.81C828,254,816.7,252,803.26,253.82c-24.07,3.21-34.57,18.56-32,46.89l9.95-1.32a2.28,2.28,0,0,1,1,4.43l-97.71,30.75A2.31,2.31,0,0,1,683.75,334.68ZM786.87,191.09l.3,2.26c-27.9,3.72-50.84,12.3-68.17,25.52s-28.63,30.2-33.85,50.71c-4.61,18.07-4.51,38.21.28,59.9L767,303.82a2.74,2.74,0,0,1-.05-.28c-3.6-32.35,8.43-50.6,35.75-54.24,14.52-1.93,26.88.2,36.73,6.36a42.8,42.8,0,0,1,16.83,20.06L928.58,253a128.94,128.94,0,0,0-39.15-39.71c-28.58-18.44-63-25.14-102.26-19.9Z" transform="translate(-48.46 -18.55)"/><path class="cls-12" d="M959,258.59a174.59,174.59,0,0,1,17.86,42.9l8.37,30.44L808.93,355.44Q819.49,376,838.86,385.9t44.9,6.54q42.12-5.61,58.65-34.8l52.16,36.89q-11,22.41-38.12,38.44t-62.12,20.69q-65.54,8.73-115.56-20.37T713.54,348.9l-1.8-6.52q-.75-2.78-1.42-5.53L815.6,303.73l69.32-9.24-1.66-6c-.47-1.91-1-3.74-1.63-5.5Z" transform="translate(-48.46 -18.55)"/><path d="M865.11,457.93c-32.24,0-61.56-7.58-87.49-22.67-33.72-19.61-56-48.46-66.28-85.76l-1.8-6.51c-.51-1.87-1-3.73-1.44-5.59a2.29,2.29,0,0,1,1.53-2.72l105.28-33.12a2.62,2.62,0,0,1,.38-.09l66.74-8.9-1-3.52c-.44-1.77-.95-3.51-1.59-5.36a2.27,2.27,0,0,1,.12-1.77,2.3,2.3,0,0,1,1.35-1.15l77.41-24.36a2.28,2.28,0,0,1,2.65,1,177.6,177.6,0,0,1,18.1,43.46l8.37,30.45a2.23,2.23,0,0,1-.3,1.86,2.26,2.26,0,0,1-1.6,1L812.51,357.27a65.61,65.61,0,0,0,27.39,26.6c12.44,6.39,27.1,8.51,43.56,6.31,27.21-3.62,46.37-14.95,57-33.66a2.29,2.29,0,0,1,3.3-.74l52.17,36.89a2.28,2.28,0,0,1,.73,2.86c-7.52,15.29-20.64,28.55-39,39.41s-39.44,17.84-63,21A224.17,224.17,0,0,1,865.11,457.93ZM713.05,338.38c.29,1.13.58,2.26.89,3.39l1.79,6.52c9.94,36.1,31.53,64,64.19,83S851.06,457.13,894,451.4c22.93-3.06,43.54-9.92,61.26-20.39,16.89-10,29.11-22,36.35-35.76l-48.53-34.31c-11.55,18.72-31.4,30.08-59,33.77-17.41,2.32-33,0-46.25-6.78s-23.69-17.4-30.92-31.44a2.29,2.29,0,0,1,1.73-3.31L982.38,330,974.7,302.1A174.33,174.33,0,0,0,958,261.31l-73.48,23.12c.36,1.18.68,2.33,1,3.47l1.64,6a2.28,2.28,0,0,1-1.9,2.87L816.09,306Z" transform="translate(-48.46 -18.55)"/><path class="cls-4" d="M956.45,433l-1.32.76c-2,1.16-4.06,2.28-6.14,3.35l-.68.34q-3.15,1.6-6.4,3.07l-.64.28c-2.2,1-4.42,1.9-6.68,2.78l-.59.22c-2.3.88-4.62,1.71-7,2.49l-.52.17c-2.39.78-4.82,1.52-7.29,2.2l-.42.11q-3.76,1-7.63,1.91l-.32.07q-3.93.88-8,1.61l-.18,0c-2.75.48-5.53.92-8.36,1.3q-4,.52-7.89.91c-.88.09-1.74.15-2.6.22-1.74.16-3.48.31-5.2.42-.83.06-1.65.09-2.47.13-1.68.09-3.35.17-5,.22l-2.87.06c-1.51,0-3,0-4.52,0-1,0-2,0-3,0-1.45,0-2.9-.08-4.34-.14l-3-.14c-1.44-.09-2.87-.19-4.3-.31-1-.08-1.89-.15-2.83-.24-1.5-.15-3-.32-4.46-.5l-2.55-.31c-1.75-.24-3.48-.52-5.21-.8-.55-.1-1.12-.17-1.68-.27-2.27-.41-4.53-.85-6.77-1.35l-1.65-.39c-1.68-.38-3.35-.78-5-1.22-.81-.21-1.61-.45-2.41-.67-1.39-.39-2.78-.79-4.16-1.21-.87-.27-1.73-.56-2.59-.84-1.3-.42-2.6-.86-3.89-1.32l-2.62-.95c-1.27-.48-2.53-1-3.79-1.48-.85-.35-1.71-.69-2.55-1.05-1.28-.55-2.56-1.11-3.82-1.69-.8-.36-1.6-.72-2.39-1.1-1.38-.65-2.74-1.34-4.1-2-.66-.34-1.33-.66-2-1-2-1.06-4-2.15-6-3.3q-50-29.09-65.23-84.39l-1.8-6.52q-.75-2.78-1.42-5.53l-11.11,39c.45,1.84.92,3.68,1.43,5.53l1.79,6.51q15.21,55.29,65.23,84.4c2,1.14,4,2.24,6,3.3.66.35,1.33.67,2,1,1.36.69,2.72,1.38,4.1,2,.79.38,1.59.73,2.39,1.09,1.27.58,2.54,1.15,3.82,1.69l2.55,1.05c1.26.51,2.52,1,3.8,1.48q1.29.49,2.61,1c1.29.46,2.59.89,3.89,1.32l2.59.83c1.38.43,2.77.82,4.17,1.21.8.23,1.59.46,2.4.67,1.66.44,3.34.84,5,1.23.55.12,1.09.27,1.64.39q3.36.74,6.77,1.34c.56.1,1.13.18,1.69.27,1.72.29,3.46.57,5.2.8.85.12,1.7.21,2.55.31,1.48.19,3,.36,4.46.5.94.1,1.89.17,2.83.25,1.43.11,2.86.22,4.31.3,1,.06,2,.11,3,.15,1.44.06,2.88.1,4.34.13l3,.05c1.49,0,3,0,4.51,0,1,0,1.91,0,2.87-.05,1.67-.05,3.34-.13,5-.22l2.46-.13.5,0c1.57-.1,3.15-.26,4.73-.39.86-.08,1.71-.13,2.57-.22,2.61-.26,5.24-.56,7.89-.92q4.24-.57,8.37-1.3l.17,0c2.7-.48,5.35-1,8-1.6l.31-.07q3.87-.87,7.63-1.91l.42-.11c2.47-.69,4.9-1.42,7.3-2.21l.51-.16c2.36-.78,4.69-1.62,7-2.5l.59-.22q3.39-1.31,6.68-2.78l.64-.28c2.17-1,4.3-2,6.4-3.06l.69-.35C940,475,942,473.9,944,472.73l.45-.24.87-.51q27.12-16,38.12-38.45l11.11-39Q983.56,416.94,956.45,433Z" transform="translate(-48.46 -18.55)"/><path d="M853.46,496.94h-.81l-3-.05c-1.47,0-2.93-.07-4.39-.13l-3-.15c-1.46-.09-2.91-.19-4.35-.31l-.5,0-2.37-.21c-1.51-.14-3-.32-4.52-.5l-.82-.1-1.76-.22c-1.77-.24-3.52-.52-5.27-.81l-.7-.11-1-.16c-2.29-.41-4.6-.87-6.87-1.36l-1-.24-.69-.16c-1.7-.39-3.4-.8-5.08-1.24l-1.66-.46-.78-.22c-1.41-.4-2.82-.8-4.22-1.23l-2.23-.71-.4-.13c-1.32-.44-2.63-.88-3.94-1.34l-2.65-1c-1.29-.49-2.58-1-3.85-1.5-.87-.35-1.73-.7-2.59-1.07-1.3-.55-2.59-1.13-3.87-1.71l-.58-.26-1.85-.85c-1.39-.66-2.77-1.36-4.15-2.06l-.75-.38c-.42-.21-.85-.42-1.27-.65-2.18-1.14-4.16-2.24-6.05-3.34-33.73-19.61-56-48.47-66.29-85.76L698.44,382c-.52-1.87-1-3.73-1.44-5.59a2.21,2.21,0,0,1,0-1.17l11.1-39a2.28,2.28,0,0,1,4.41.08c.45,1.82.91,3.64,1.41,5.46l1.79,6.52c9.94,36.1,31.53,64,64.19,83,1.86,1.08,3.78,2.15,5.88,3.25l1.2.61.77.39c1.34.68,2.68,1.36,4,2,.57.27,1.13.53,1.7.78l.66.3c1.25.57,2.5,1.13,3.77,1.67l2.51,1c1.24.5,2.49,1,3.74,1.46.86.32,1.72.64,2.58.94,1.27.45,2.55.89,3.84,1.31l.43.14,2.12.68c1.36.42,2.73.81,4.11,1.19l.83.24c.51.14,1,.29,1.54.42,1.64.44,3.29.83,5,1.21l.73.18.89.21c2.2.48,4.45.93,6.68,1.32l.9.15.76.12c1.7.28,3.41.55,5.14.79.55.08,1.11.14,1.67.21l.84.1c1.47.17,2.93.35,4.41.49l2.28.2.51,0c1.42.11,2.83.22,4.26.3l2.91.14c1.42.06,2.85.11,4.29.14,1,0,1.95,0,2.94,0,1.48,0,3,0,4.46,0h.82c.67,0,1.34,0,2-.05,1.64,0,3.3-.13,5-.22l.94,0,1.5-.08c1.59-.11,3.2-.25,4.8-.39l1.44-.12,1.48-.13c2.65-.26,5.28-.57,7.82-.9,2.74-.37,5.52-.8,8.26-1.29l.57,2.22-.4-2.25c2.6-.46,5.25-1,7.89-1.59l.17,0c2.62-.59,5.15-1.23,7.66-1.92l.43-.11c2.34-.64,4.76-1.38,7.18-2.17l.52-.16c2.22-.74,4.53-1.56,6.87-2.46l.58-.22c2.14-.83,4.35-1.75,6.59-2.74l.63-.27c2-.93,4.17-1.94,6.3-3l.67-.34c2-1,4-2.13,6-3.3l.53-.3.77-.44h0c17.59-10.4,30.12-23,37.23-37.49a2.28,2.28,0,0,1,4.24,1.63l-11.1,39a2.5,2.5,0,0,1-.15.38c-7.51,15.29-20.64,28.55-39,39.4l-1.34.77c-2.11,1.21-4.2,2.36-6.23,3.4l-.7.35c-2.19,1.12-4.38,2.17-6.49,3.11l-.66.29c-2.28,1-4.56,2-6.78,2.82l-.6.23c-2.39.91-4.77,1.76-7.07,2.52l-.53.17c-2.5.82-5,1.57-7.39,2.23l-.43.12c-2.6.71-5.2,1.36-7.72,1.93l-.2,0c-2.82.64-5.53,1.18-8.2,1.66l-.18,0c-2.81.5-5.66.94-8.45,1.31-2.58.35-5.27.66-8,.93L874,496l-2.09.18c-1.24.11-2.49.23-3.72.31l-.51,0-1.56.08-.92,0c-1.69.09-3.39.18-5.07.23l-2.19,0h-.71C856,496.92,854.71,496.94,853.46,496.94Zm-151.89-121c.4,1.63.82,3.25,1.27,4.88l1.79,6.52c9.93,36.1,31.52,64,64.18,83,1.84,1.07,3.77,2.13,5.89,3.25.39.21.78.41,1.18.6l.78.39c1.34.69,2.68,1.37,4,2q.88.42,1.77.81l.58.27c1.25.57,2.51,1.13,3.77,1.66.83.36,1.68.7,2.52,1,1.24.5,2.48,1,3.74,1.46l2.57.94c1.27.45,2.56.88,3.84,1.3l.4.13c.71.23,1.43.47,2.15.69,1.36.42,2.74.81,4.11,1.2l.8.22,1.57.44c1.64.43,3.29.82,5,1.2l.75.18.87.21c2.21.49,4.45.93,6.68,1.33l.9.14.76.12c1.71.29,3.42.56,5.14.79l1.67.21.84.1c1.47.18,2.93.35,4.41.49.76.08,1.53.14,2.3.2l.5,0c1.41.12,2.82.22,4.25.3q1.46.09,2.91.15c1.43.06,2.86.1,4.29.13l2.94.05c1.48,0,3,0,4.47,0h.72l2.11,0c1.65-.05,3.31-.13,5-.22l.95-.05c.49,0,1,0,1.48-.08l.5,0c1.19-.08,2.4-.19,3.61-.3l2.14-.18,1.47-.13c2.66-.27,5.29-.57,7.82-.91,2.73-.36,5.51-.8,8.27-1.28l.57,2.21-.4-2.24c2.6-.47,5.25-1,7.88-1.59l.19,0c2.58-.58,5.11-1.22,7.65-1.91l.41-.11c2.34-.65,4.76-1.38,7.2-2.17l.51-.17c2.23-.74,4.55-1.56,6.88-2.46l.57-.21c2.15-.83,4.36-1.76,6.59-2.74l.62-.28c2.06-.92,4.18-1.93,6.31-3l.68-.34c2-1,4-2.11,6-3.29l1.3-.74c17.52-10.36,30-22.91,37.15-37.31L988,409.14c-7.56,9.66-17.75,18.3-30.43,25.8h0l-.84.48-.5.29c-2.1,1.2-4.19,2.35-6.23,3.4l-.7.35c-2.19,1.11-4.38,2.16-6.5,3.11l-.64.28c-2.3,1-4.58,2-6.79,2.82l-.59.23c-2.41.92-4.79,1.77-7.08,2.53l-.52.16c-2.5.82-5,1.57-7.4,2.24l-.43.11c-2.58.71-5.18,1.36-7.73,1.94l-.21,0c-2.81.63-5.53,1.18-8.18,1.65l-.18,0c-2.81.5-5.65.94-8.46,1.32-2.58.34-5.26.65-8,.92-.53.06-1,.1-1.58.14l-1.39.12c-1.64.14-3.28.28-4.91.39l-1.57.08-.92.05c-1.69.09-3.38.17-5.06.22-.7,0-1.4,0-2.1.05h-.8c-1.53,0-3.05,0-4.57,0-1,0-2,0-3,0-1.46,0-2.93-.08-4.38-.14-1,0-2-.09-3-.15-1.46-.08-2.91-.19-4.36-.31l-.51,0-2.35-.2c-1.52-.15-3-.32-4.52-.51l-.82-.09-1.76-.22c-1.77-.24-3.52-.52-5.27-.81l-.7-.11-1-.17c-2.29-.4-4.6-.86-6.86-1.36l-1-.23-.67-.17c-1.7-.39-3.4-.79-5.08-1.23l-1.63-.46-.81-.23c-1.42-.39-2.83-.79-4.23-1.22l-2.19-.71-.43-.14c-1.32-.43-2.64-.87-3.95-1.34-.89-.31-1.77-.64-2.65-1q-1.94-.72-3.84-1.5l-2.59-1.06c-1.3-.55-2.59-1.13-3.88-1.72l-.65-.29-1.77-.81c-1.4-.67-2.78-1.36-4.16-2.07l-.73-.37-1.29-.65c-2.15-1.14-4.13-2.23-6-3.35-33.72-19.61-56-48.46-66.28-85.76l-1.11-4Z" transform="translate(-48.46 -18.55)"/><polygon class="cls-15" points="516.75 311.93 505.64 350.93 503.98 344.89 515.09 305.89 516.75 311.93"/><path d="M554.1,371.77h0a2.29,2.29,0,0,1-2.19-1.68l-1.66-6a2.24,2.24,0,0,1,0-1.23l11.1-39a2.29,2.29,0,0,1,2.2-1.66h0a2.3,2.3,0,0,1,2.19,1.68l1.66,6a2.24,2.24,0,0,1,0,1.23l-11.11,39A2.27,2.27,0,0,1,554.1,371.77Z" transform="translate(-48.46 -18.55)"/><path class="cls-3" d="M544.72,296.72c-.94-.59-1.92-1.13-2.91-1.64-.14-.08-.28-.16-.43-.23-1-.48-1.92-.91-2.91-1.32l-.56-.22q-1.5-.6-3.06-1.08l-.49-.14c-1.1-.33-2.21-.63-3.36-.88h0c-1.14-.25-2.31-.45-3.5-.62l-.51-.08c-1.15-.15-2.31-.26-3.5-.35l-.66,0c-1.19-.07-2.4-.1-3.64-.1h-.58c-1.3,0-2.61.06-4,.15h0c-.51,0-1,.08-1.55.13l-1,.08c-.86.09-1.72.19-2.6.31s-1.95.29-2.89.46l-.86.17c-.66.13-1.32.27-2,.42l-.9.22c-.68.17-1.34.36-2,.55l-.63.18c-.84.27-1.66.55-2.46.86l-.55.22c-.61.24-1.22.5-1.81.77l-.74.35c-.53.25-1,.52-1.56.8-.22.12-.45.23-.66.36l-.33.17c-.2.12-.37.26-.57.37-.58.36-1.15.72-1.7,1.11l-.86.62c-.52.39-1,.79-1.51,1.21-.25.21-.51.42-.76.65-.55.49-1.07,1-1.58,1.54-.15.16-.32.31-.47.48-.64.7-1.26,1.43-1.84,2.2l-.41.58c-.43.59-.84,1.2-1.23,1.82-.18.29-.35.59-.52.89-.33.56-.64,1.14-.94,1.73-.17.32-.33.65-.48,1-.3.63-.57,1.27-.83,1.93-.12.3-.25.6-.36.91-.36,1-.7,2-1,3l-11.11,39c.29-1,.63-2,1-3,.11-.3.24-.6.36-.9.26-.66.54-1.31.83-1.94l.48-1c.3-.6.61-1.17.94-1.74.17-.29.34-.59.52-.88.39-.63.81-1.23,1.23-1.82.14-.19.27-.4.42-.59.58-.76,1.19-1.49,1.83-2.2l.48-.48c.51-.53,1-1,1.57-1.54l.76-.65c.49-.41,1-.82,1.51-1.2l.86-.63c.55-.38,1.12-.74,1.7-1.1l.9-.55.66-.36c.51-.27,1-.54,1.56-.8l.75-.35c.59-.27,1.19-.52,1.81-.77l.54-.22c.8-.3,1.62-.59,2.46-.85l.63-.18c.65-.2,1.32-.39,2-.56l.89-.22c.64-.15,1.3-.29,2-.42l.86-.17c.95-.17,1.91-.33,2.9-.46s1.74-.22,2.59-.3l.81-.07,1.73-.15c1.34-.09,2.66-.13,4-.14h.59c1.23,0,2.44,0,3.63.11l.67,0c1.18.08,2.35.2,3.49.35l.51.07c1.19.18,2.36.37,3.5.62h0c1.14.25,2.26.54,3.35.87l.49.14q1.56.5,3.06,1.08l.56.23c1,.4,2,.84,2.92,1.32l.43.22c1,.51,2,1.05,2.91,1.64q14.16,8.82,18.82,27.73l11.11-39Q558.87,305.54,544.72,296.72Z" transform="translate(-48.46 -18.55)"/><path d="M552.44,365.73h0a2.27,2.27,0,0,1-2.17-1.74c-3-11.95-9-20.81-17.82-26.33-.81-.51-1.71-1-2.75-1.55l-.4-.21c-.86-.43-1.79-.85-2.76-1.25l-.53-.21c-1-.39-2-.74-2.9-1l-.47-.13c-1.15-.35-2.19-.62-3.19-.84s-2.11-.41-3.36-.59l-.49-.07c-1-.14-2.15-.25-3.35-.33l-.65-.05c-1.17-.06-2.36-.09-3.49-.1h-.57c-1.38,0-2.64.06-3.82.14-.5,0-1,.08-1.54.13l-.91.08c-.84.08-1.68.18-2.53.29s-1.88.28-2.79.45l-.82.16c-.64.13-1.27.26-1.88.4l-.86.21c-.65.17-1.28.34-1.91.53l-.6.18c-.79.25-1.57.52-2.33.8l-.52.21c-.57.23-1.14.47-1.7.73q-.35.15-.69.33c-.51.24-1,.49-1.47.75l-.62.33c-.18.1-.35.21-.52.32l-.32.2c-.54.33-1.07.67-1.58,1l-.8.58c-.48.36-1,.73-1.4,1.12l-.18.15-.53.45c-.5.46-1,.94-1.46,1.43l-.43.44q-.9,1-1.71,2l-.38.55c-.39.54-.78,1.1-1.14,1.68-.13.21-.26.43-.38.65l-.11.18c-.3.52-.6,1.06-.88,1.61-.15.31-.3.61-.44.92-.28.59-.53,1.19-.78,1.81l-.14.34c-.07.17-.14.34-.2.52-.37,1-.68,1.92-.93,2.82h0a2.28,2.28,0,1,1-4.38-1.25l11.1-39c.29-1,.63-2.05,1-3.17.08-.23.17-.45.26-.67l.12-.29c.28-.7.57-1.39.88-2.06l.51-1c.32-.63.66-1.25,1-1.85l.09-.16c.15-.27.31-.53.47-.79.41-.66.86-1.31,1.31-1.94l.14-.2.3-.43c.62-.81,1.29-1.61,2-2.36.11-.13.23-.24.35-.36l.16-.16c.54-.57,1.1-1.13,1.69-1.66l.68-.58.14-.12q.78-.66,1.62-1.29c.3-.22.61-.45.92-.66.58-.41,1.19-.8,1.81-1.18l.17-.12.45-.28.25-.14.63-.34.17-.09c.53-.29,1.09-.58,1.65-.85l.79-.37c.62-.28,1.26-.55,1.91-.81l.57-.23c.85-.32,1.71-.62,2.6-.9l.65-.19c.69-.21,1.38-.4,2.09-.58l.93-.23c.67-.16,1.36-.3,2.05-.44l.89-.18c1-.17,2-.34,3-.47s1.79-.23,2.67-.32l.65-.05.68-.06,1.27-.11h0c1.27-.08,2.6-.13,4.07-.15h.61c1.23,0,2.5,0,3.77.11l.69,0c1.27.09,2.49.21,3.64.36l.54.08c1.36.2,2.55.41,3.65.65s2.29.55,3.55.92l.51.15c1.05.32,2.13.71,3.22,1.13l.59.24c1.08.44,2.12.91,3.08,1.39l.45.24c1.15.59,2.15,1.16,3.07,1.73,9.91,6.18,16.58,16,19.83,29.12a2.21,2.21,0,0,1,0,1.17l-11.11,39A2.28,2.28,0,0,1,552.44,365.73Zm-44.3-39c1.21,0,2.45,0,3.69.11l.7,0c1.29.09,2.49.2,3.63.36l.55.08c1.35.19,2.54.4,3.65.64s2.28.55,3.54.93l.51.14c1.05.33,2.14.71,3.22,1.14l.6.24c1.08.44,2.11.91,3.07,1.39l.45.23c1.15.6,2.16,1.17,3.08,1.74,7.95,4.95,13.82,12.24,17.5,21.71l8.86-31.09c-3-11.66-9-20.32-17.67-25.75h0c-.82-.5-1.72-1-2.75-1.55l-.41-.21c-.86-.43-1.78-.85-2.76-1.25l-.53-.21c-1-.39-2-.73-2.9-1l-.46-.14c-1.15-.34-2.2-.61-3.19-.83s-2.11-.41-3.36-.59l-.49-.08c-1.06-.14-2.18-.25-3.35-.33l-.64,0c-1.18-.07-2.34-.11-3.5-.1h-.57c-1.39,0-2.64.05-3.82.13h0l-1.15.09-1.29.11c-.84.09-1.68.18-2.53.3s-1.87.28-2.78.44l-.83.16c-.63.13-1.26.26-1.88.41l-.86.21c-.64.16-1.28.34-1.9.53l-.59.17q-1.2.38-2.34.81l-.52.21c-.58.23-1.15.47-1.7.72l-.7.33c-.5.24-1,.49-1.46.75l-1.11.62-.35.23c-.54.33-1.07.67-1.59,1l-.79.58c-.48.36-.95.73-1.4,1.11l-.16.13-.55.48c-.51.46-1,.94-1.46,1.43l-.44.44c-.59.65-1.17,1.33-1.7,2l-.38.54c-.4.55-.78,1.11-1.14,1.69-.14.21-.26.43-.39.65l-.1.17c-.31.53-.6,1.07-.88,1.62l-.45.91c-.27.59-.53,1.2-.77,1.82l-.14.33-.21.52c-.37,1-.68,1.94-.93,2.83l-6.13,21.53c.31-.3.63-.61.95-.9l.65-.56.17-.14c.52-.44,1.06-.88,1.62-1.29.3-.23.61-.45.92-.67.59-.41,1.19-.8,1.81-1.18l.28-.17.68-.41.7-.38c.55-.3,1.1-.58,1.67-.85.25-.13.51-.25.78-.37.63-.29,1.27-.56,1.92-.82l.56-.23c.85-.32,1.71-.62,2.6-.9l.65-.19c.69-.2,1.39-.4,2.1-.58l.93-.22q1-.24,2-.45l.9-.17c1-.18,2-.34,3-.48s1.79-.22,2.68-.31l.83-.07,1.78-.15c1.27-.09,2.6-.14,4.08-.15h.68Z" transform="translate(-48.46 -18.55)"/><path class="cls-12" d="M597.21,250.46q43.8,28.25,60,87l.83,3L501.24,389.83l-11,3.47-82.15,25.86a144,144,0,0,1-14.24-34.27l-1.79-6.5q-10.61-38.58-2.55-70.24t34.69-52q26.59-20.3,69.25-26Q553.43,222.21,597.21,250.46Zm-33.66,74q-4.68-18.9-18.83-27.72t-35.22-6q-39,5.19-33.78,51.72l89.49-11.93-1.66-6" transform="translate(-48.46 -18.55)"/><path d="M408.06,421.44a2.29,2.29,0,0,1-2-1.14,146.67,146.67,0,0,1-14.47-34.81l-1.79-6.5c-7.14-26-8-50-2.56-71.41s17.45-39.44,35.52-53.21,41.62-22.59,70.33-26.42c40.37-5.38,75.81,1.54,105.33,20.59s50,48.77,60.92,88.34l.83,3a2.28,2.28,0,0,1-1.52,2.78L408.75,421.33A2.07,2.07,0,0,1,408.06,421.44ZM518.9,230.75a190.65,190.65,0,0,0-25.18,1.72c-27.91,3.72-50.84,12.31-68.17,25.52s-28.62,30.21-33.86,50.72-4.39,43.86,2.54,69.07l1.79,6.5a142.84,142.84,0,0,0,13.11,32.15L655.22,339l-.25-.9c-10.58-38.45-30.43-67.29-59-85.71h0C573.67,238,547.83,230.75,518.9,230.75ZM475.72,344.69a2.25,2.25,0,0,1-1.41-.48,2.32,2.32,0,0,1-.86-1.55c-3.58-32.34,8.45-50.59,35.75-54.23,14.52-1.94,26.88.2,36.73,6.35s16.57,16,19.82,29.09l1.66,6a2.31,2.31,0,0,1-.3,1.86,2.25,2.25,0,0,1-1.6,1L476,344.67A1.51,1.51,0,0,1,475.72,344.69Zm43.46-52.39a69.93,69.93,0,0,0-9.38.65c-24.06,3.21-34.56,18.55-32.05,46.89l84.57-11.27-1-3.52,0-.06c-3-11.95-8.94-20.81-17.81-26.33C536.75,294.43,528.59,292.3,519.18,292.3Z" transform="translate(-48.46 -18.55)"/><polygon class="cls-4" points="452.78 371.28 440.06 375.28 359.61 400.61 348.5 439.61 430.64 413.75 431.24 411.68 441.68 410.28 598.44 360.96 609.54 321.95 452.78 371.28"/><path d="M397,460.44a2.28,2.28,0,0,1-2.2-2.9l11.11-39a2.3,2.3,0,0,1,1.51-1.55l249.94-78.65a2.28,2.28,0,0,1,2.87,2.8l-11.1,39a2.28,2.28,0,0,1-1.51,1.55L490.82,431l-.39.09-8.95,1.19-.19.64a2.26,2.26,0,0,1-1.51,1.55l-82.14,25.86A2.24,2.24,0,0,1,397,460.44Zm13-39.47-9.61,33.75,76.93-24.22.26-.9a2.28,2.28,0,0,1,1.89-1.63l10.25-1.37L645,377.7,654.65,344,501.92,392h0Zm91.32-31.14h0Z" transform="translate(-48.46 -18.55)"/><path class="cls-3" d="M393.82,384.89l-1.79-6.5q-10.61-38.58-2.55-70.24c.23-.91.48-1.82.73-2.71h0l-11.1,39c-.26.9-.5,1.8-.73,2.71q-8.07,31.67,2.54,70.24l1.79,6.5A143.39,143.39,0,0,0,397,458.16l11.1-39A144,144,0,0,1,393.82,384.89Z" transform="translate(-48.46 -18.55)"/><path d="M397,460.44a2.29,2.29,0,0,1-2-1.13,147,147,0,0,1-14.46-34.81l-1.79-6.5c-7.15-26-8-50-2.57-71.41.24-.93.49-1.86.75-2.77L388,304.91l0-.1a2.28,2.28,0,0,1,4.39,1.25l0,.11c-.24.84-.47,1.68-.69,2.54-5.25,20.63-4.39,43.86,2.54,69.07l1.79,6.5h0A142,142,0,0,0,410,418a2.29,2.29,0,0,1,.22,1.77l-11.11,39a2.29,2.29,0,0,1-1.91,1.64ZM383.74,336.49l-2.44,8.58c-.25.87-.49,1.76-.72,2.65-5.25,20.62-4.39,43.86,2.54,69.07l1.79,6.5a144.13,144.13,0,0,0,11.37,28.94l9.33-32.77a147.15,147.15,0,0,1-14-34l-1.79-6.5A159.72,159.72,0,0,1,383.74,336.49Z" transform="translate(-48.46 -18.55)"/><path class="cls-4" d="M701.11,433.65l-11.11,39q-11,22.41-38.12,38.45t-62.11,20.68q-65.53,8.73-115.55-20.37-32.54-18.9-50.3-48.92l11.11-39q17.81,30,50.29,48.92,50,29.1,115.55,20.36,35-4.66,62.12-20.68T701.11,433.65Z" transform="translate(-48.46 -18.55)"/><path d="M560.54,536.07c-32.24,0-61.55-7.59-87.47-22.68C451.2,500.68,434,484,422,463.67a2.29,2.29,0,0,1-.23-1.79l11.11-39a2.28,2.28,0,0,1,4.15-.54c11.64,19.61,28.29,35.8,49.48,48.12,32.73,19.05,71.12,25.81,114.1,20.07,22.94-3.06,43.55-9.91,61.26-20.38s30.12-23,37.23-37.49a2.28,2.28,0,0,1,4.24,1.63l-11.1,39a3.12,3.12,0,0,1-.15.39c-7.51,15.29-20.64,28.54-39,39.4s-39.42,17.84-63,21A224.36,224.36,0,0,1,560.54,536.07ZM426.39,462.18c11.61,19.23,28.09,35.13,49,47.27,32.73,19.06,71.12,25.81,114.1,20.08,22.95-3.06,43.56-9.92,61.26-20.39,17.52-10.35,30-22.9,37.15-37.3l6.71-23.58c-7.56,9.67-17.75,18.31-30.43,25.8-18.24,10.79-39.43,17.84-63,21-44,5.87-83.37-1.08-117-20.65-20.26-11.78-36.51-27-48.37-45.31Z" transform="translate(-48.46 -18.55)"/><path class="cls-4" d="M663,472.1l-.9.53q-26.77,15.57-61.22,20.15-7.7,1-15.19,1.53-56.22,3.79-100.36-21.89Q452.8,453.51,435,423.5l-11.11,39q17.81,30,50.3,48.92,44.13,25.69,100.35,21.9,7.5-.51,15.2-1.53Q624.2,527.2,651,511.63l.9-.52q27.12-16,38.12-38.45l11.11-39Q690.1,456.08,663,472.1Z" transform="translate(-48.46 -18.55)"/><polygon class="cls-4" points="298.23 316.01 287.12 355.01 198.17 366.87 209.28 327.87 298.23 316.01"/><path d="M246.63,387.71a2.29,2.29,0,0,1-2.2-2.91l11.11-39a2.27,2.27,0,0,1,1.89-1.64l89-11.86a2.28,2.28,0,0,1,2.49,2.89l-11.11,39a2.29,2.29,0,0,1-1.89,1.64l-88.95,11.86Zm12.89-39.23-9.75,34.23,84-11.21,9.74-34.22Z" transform="translate(-48.46 -18.55)"/><path class="cls-3" d="M209.64,359.43l1.33-.06c1.31,0,2.59,0,3.83.08h.06c1.22.07,2.41.19,3.56.34.39.05.76.13,1.15.19.76.12,1.53.25,2.27.41.44.09.86.22,1.29.33.65.16,1.3.33,1.93.52.44.14.86.3,1.29.45.58.21,1.16.42,1.73.66.42.18.83.38,1.24.58s1.06.51,1.57.79.79.45,1.18.69,1,.61,1.44.93.74.53,1.1.81.89.7,1.31,1.07.69.6,1,.92.81.8,1.2,1.23.62.66.92,1,.74.92,1.1,1.39.56.73.82,1.11.68,1,1,1.58c.24.39.49.77.71,1.17.33.58.63,1.2.93,1.81.19.4.4.79.59,1.2.31.7.6,1.44.88,2.18.14.36.3.71.43,1.08.4,1.13.77,2.3,1.11,3.52l11.1-39q-.5-1.82-1.11-3.51c-.13-.38-.28-.72-.42-1.09-.29-.74-.57-1.47-.89-2.17-.18-.42-.39-.81-.59-1.21-.3-.61-.59-1.22-.92-1.8-.23-.41-.47-.79-.71-1.18s-.65-1.07-1-1.57-.55-.75-.82-1.11-.72-.95-1.1-1.39-.61-.69-.92-1-.79-.83-1.21-1.23-.67-.61-1-.91-.87-.73-1.32-1.08-.72-.54-1.1-.8-.94-.64-1.43-.93-.78-.48-1.18-.7-1-.54-1.58-.79-.81-.39-1.24-.57-1.14-.45-1.73-.66c-.43-.15-.85-.32-1.29-.45-.62-.2-1.27-.36-1.93-.53-.43-.11-.84-.23-1.28-.33-.74-.16-1.51-.28-2.28-.4-.38-.06-.75-.15-1.14-.2-1.16-.15-2.34-.26-3.56-.34h-.06c-1.24-.07-2.52-.1-3.83-.08-.43,0-.89,0-1.33.05-.79,0-1.57,0-2.38.09l-.41,0-.57.05c-1.32.1-2.65.24-4,.42s-2.61.41-3.85.68c-.39.08-.76.18-1.14.27-.86.2-1.7.42-2.51.67l-1.19.38c-.8.27-1.58.56-2.34.88-.32.13-.65.25-1,.4a31.13,31.13,0,0,0-3,1.51l0,0c-.73.43-1.43.88-2.11,1.36l-.58.43c-.51.37-1,.76-1.48,1.17l-.55.47c-.63.56-1.23,1.13-1.8,1.74a23.56,23.56,0,0,0-3,4,18.06,18.06,0,0,0-1.84,4.26l-11.11,39a20.38,20.38,0,0,1,4.88-8.27c.57-.61,1.18-1.18,1.8-1.73.18-.17.37-.32.56-.48.47-.4,1-.79,1.48-1.17.19-.14.38-.29.58-.42a24.48,24.48,0,0,1,2.14-1.38,33.47,33.47,0,0,1,3-1.52l1-.4c.76-.31,1.53-.61,2.33-.88l1.19-.38c.81-.24,1.65-.46,2.51-.67.38-.09.75-.19,1.14-.27,1.25-.26,2.52-.5,3.86-.67s2.71-.32,4-.43l.57-.05C207.81,359.48,208.72,359.45,209.64,359.43Z" transform="translate(-48.46 -18.55)"/><path d="M246.63,387.71h0a2.28,2.28,0,0,1-2.19-1.68c-.31-1.12-.67-2.24-1.06-3.35-.07-.2-.15-.38-.22-.56l-.19-.47c-.27-.7-.54-1.4-.83-2.07l-.34-.7-.22-.43c-.32-.64-.58-1.18-.87-1.69-.14-.26-.3-.51-.45-.77l-.21-.34c-.31-.49-.61-1-.94-1.46-.2-.3-.41-.58-.63-.85l-.13-.18c-.33-.44-.67-.88-1-1.29s-.56-.63-.85-.94-.73-.77-1.11-1.13-.61-.57-.93-.84-.8-.68-1.21-1-.67-.51-1-.75-.88-.58-1.33-.85-.72-.44-1.09-.64-1-.5-1.45-.74l-.2-.09-.95-.44c-.53-.22-1.07-.41-1.61-.61l-.36-.13-.85-.29c-.57-.18-1.18-.34-1.78-.49l-.48-.12c-.25-.07-.5-.14-.76-.19-.68-.15-1.39-.27-2.1-.38l-.55-.09-.58-.1c-1.11-.15-2.26-.26-3.39-.32l-.16,0c-1-.05-2.28-.08-3.57-.07l-.72,0-.56,0h-.1c-.86,0-1.71.05-2.6.12l-.55,0c-1.42.12-2.69.25-3.91.42s-2.37.36-3.69.64l-.7.17-.38.09c-.81.19-1.61.4-2.38.64l-1.12.35c-.75.26-1.48.54-2.19.83l-.37.15-.53.22c-1.06.48-2,.94-2.79,1.41-.63.37-1.27.78-2,1.27l-.53.4c-.47.34-.92.7-1.36,1.07L184,370c-.65.59-1.18,1.09-1.64,1.59a18.09,18.09,0,0,0-4.35,7.32v0a2.28,2.28,0,0,1-4.39-1.25l11.1-39a20.58,20.58,0,0,1,2.08-4.79,25.67,25.67,0,0,1,3.33-4.41c.56-.6,1.2-1.21,1.95-1.88l.47-.41.13-.11c.52-.43,1.05-.85,1.6-1.26l.13-.1.5-.36c.81-.57,1.55-1.05,2.26-1.46l.11-.06c1-.56,2-1.07,3.14-1.59l.7-.29.32-.13c.81-.33,1.63-.65,2.48-.93.41-.14.83-.28,1.26-.4.85-.26,1.74-.5,2.64-.71l.35-.09.84-.2c1.44-.3,2.76-.53,4-.7s2.66-.32,4.14-.44l1-.08c.65-.05,1.28-.07,1.91-.08l1.05,0,.87,0c1.4,0,2.74,0,4,.08h.15c1.16.07,2.41.19,3.64.35l.8.13.4.07c.81.13,1.62.26,2.4.43.33.07.64.16,1,.24l.4.11c.76.19,1.42.36,2.06.56.35.11.69.24,1,.36l.33.12c.63.23,1.25.45,1.85.71.39.16.76.34,1.13.51l.2.1c.58.27,1.15.55,1.7.85s.85.49,1.26.75,1,.65,1.55,1,.8.57,1.19.87,1,.76,1.43,1.16.73.65,1.09,1,.87.87,1.29,1.32.67.72,1,1.1.8,1,1.19,1.49l.12.16c.25.34.51.68.75,1,.38.54.73,1.11,1.08,1.68l.18.3c.19.31.39.63.57,1,.33.59.64,1.21.94,1.83l.23.45c.15.3.3.6.44.91.33.73.63,1.51.93,2.28l.15.39c.1.25.2.49.29.75.44,1.22.83,2.45,1.16,3.68a2.33,2.33,0,0,1,0,1.23l-11.11,39A2.29,2.29,0,0,1,246.63,387.71Zm-35-30.62c1.14,0,2.23,0,3.26.09h.16c1.15.07,2.4.18,3.63.35.27,0,.53.08.8.13l.41.07c.83.13,1.63.26,2.39.43.33.07.65.16,1,.24l.4.11c.7.17,1.39.35,2.05.55l1,.37.33.12c.63.22,1.25.45,1.85.7.39.17.77.34,1.14.52l.2.1c.57.27,1.14.55,1.69.85s.85.49,1.27.74,1.05.66,1.55,1,.8.57,1.19.87,1,.76,1.42,1.16.74.65,1.09,1,.88.87,1.3,1.32.67.72,1,1.09.79,1,1.18,1.5l.13.17.75,1c.37.54.72,1.1,1.07,1.67l.19.32c.19.31.38.62.56.94.33.58.63,1.2.93,1.81l.25.49c.14.29.29.58.43.89l.1.22,9-31.52c-.26-.92-.56-1.84-.88-2.75-.07-.19-.15-.37-.22-.55l-.19-.48c-.27-.7-.54-1.4-.84-2.06-.11-.25-.22-.48-.34-.71l-.21-.42c-.31-.63-.58-1.18-.87-1.7-.15-.27-.31-.52-.47-.78l-.19-.32c-.31-.5-.62-1-.94-1.47-.21-.29-.42-.58-.64-.86l-.12-.17c-.33-.43-.67-.87-1-1.28s-.56-.64-.85-.95-.73-.76-1.11-1.13l-.93-.84c-.4-.34-.8-.67-1.22-1l-1-.74c-.43-.3-.87-.58-1.32-.86l-1.09-.64c-.47-.26-1-.5-1.45-.73l-.21-.1c-.32-.15-.63-.3-1-.43-.52-.22-1.06-.42-1.61-.61l-.36-.13q-.4-.17-.84-.3c-.56-.17-1.14-.32-1.72-.47l-.55-.14-.75-.19c-.7-.15-1.42-.27-2.15-.38l-.5-.09-.58-.1c-1.12-.14-2.26-.25-3.4-.32h-.15c-1-.06-2.28-.09-3.58-.07l-.7,0-1.14.05c-.57,0-1.14,0-1.74.07l-1,.08c-1.41.11-2.68.25-3.9.41s-2.37.37-3.69.65l-.69.16-.4.09c-.81.2-1.6.41-2.37.64-.38.12-.75.23-1.12.36-.76.25-1.48.53-2.19.83l-.38.15-.53.22a28.63,28.63,0,0,0-2.78,1.41l-.08,0c-.59.35-1.21.75-1.9,1.23l-.53.39c-.47.35-.92.7-1.36,1.08l-.51.43c-.65.58-1.19,1.1-1.65,1.59a20.66,20.66,0,0,0-2.74,3.62,16.16,16.16,0,0,0-1.62,3.72L181.71,366c.48-.4,1-.79,1.48-1.16l.15-.12.48-.34c.81-.57,1.56-1.05,2.3-1.48a34.12,34.12,0,0,1,3.21-1.63l.71-.3.32-.13c.8-.33,1.62-.64,2.47-.93l1.26-.4c.86-.26,1.74-.49,2.64-.71l.35-.08.85-.2c1.43-.3,2.75-.53,4-.7s2.65-.32,4.13-.44l.6-.05c.95-.07,1.86-.1,2.78-.13h.1l.49,0,.89,0Z" transform="translate(-48.46 -18.55)"/><polygon class="cls-4" points="323.84 411.86 312.73 450.87 230.32 476.8 241.43 437.79 323.84 411.86"/><path d="M278.78,497.63a2.26,2.26,0,0,1-1.59-.64,2.29,2.29,0,0,1-.61-2.26l11.11-39a2.28,2.28,0,0,1,1.51-1.55l82.41-25.93a2.29,2.29,0,0,1,2.88,2.8l-11.11,39a2.28,2.28,0,0,1-1.51,1.55l-82.41,25.93A2.24,2.24,0,0,1,278.78,497.63Zm13-39.48-9.61,33.76,77.2-24.29,9.61-33.76Z" transform="translate(-48.46 -18.55)"/><g class="cls-7"><path d="M304.42,504.52a2.29,2.29,0,0,1-2.19-2.91v0a17.56,17.56,0,0,0,.41-1.94,1.55,1.55,0,0,1,.06-.31l11.11-39a2.28,2.28,0,0,1,4.45.95,19.88,19.88,0,0,1-.55,2.57l-11.1,39v0A2.27,2.27,0,0,1,304.42,504.52Z" transform="translate(-48.46 -18.55)"/><g class="cls-16"><g class="cls-7"><path class="cls-11" d="M315.53,463.23l-11.11,39a19.08,19.08,0,0,0,.49-2.27L316,461a17.41,17.41,0,0,1-.48,2.28" transform="translate(-48.46 -18.55)"/><path d="M304.42,504.52a2.29,2.29,0,0,1-2.19-2.91v0a17.56,17.56,0,0,0,.41-1.94,1.55,1.55,0,0,1,.06-.31l11.11-39a2.28,2.28,0,0,1,4.45.95,19.88,19.88,0,0,1-.55,2.57l-11.1,39v0A2.27,2.27,0,0,1,304.42,504.52Z" transform="translate(-48.46 -18.55)"/></g></g></g><g class="cls-7"><path class="cls-3" d="M92.66,370.19l11.11-39q-4.45,15.62.41,33.3A66.85,66.85,0,0,0,125,397.6q15.47,13.59,40,21.29t59.44,9.78q35,2.08,48.46,6.55t16.26,14.45a20.38,20.38,0,0,1,.74,6.68l-11.1,39a20.73,20.73,0,0,0-.75-6.68q-2.75-10-16.26-14.44t-48.46-6.56q-34.93-2.07-59.43-9.77t-40-21.3a66.8,66.8,0,0,1-20.84-33.11Q88.21,385.82,92.66,370.19Z" transform="translate(-48.46 -18.55)"/><path d="M278.78,497.63a2.34,2.34,0,0,1-.38,0,2.28,2.28,0,0,1-1.9-2.38,18.31,18.31,0,0,0-.67-5.94c-1.63-5.93-6.46-10.14-14.78-12.89-8.76-2.9-24.87-5.07-47.87-6.44-23.39-1.39-43.58-4.72-60-9.88-16.56-5.2-30.29-12.52-40.78-21.75A69.31,69.31,0,0,1,90.88,404.1c-3.34-12.14-3.48-23.76-.41-34.53l11.1-39h0a2.28,2.28,0,0,1,4.39,1.25h0c-2.84,10-2.69,20.75.42,32.07a64.89,64.89,0,0,0,20.14,32c10,8.8,23.19,15.81,39.15,20.83s35.86,8.3,58.88,9.67c23.74,1.42,39.78,3.6,49,6.66,9.74,3.22,15.71,8.61,17.75,16a22.94,22.94,0,0,1,.82,7.42,2.64,2.64,0,0,1-.08.49L281,496A2.28,2.28,0,0,1,278.78,497.63Zm-179-144-4.91,17.23h0c-2.83,10-2.69,20.75.42,32.07a64.92,64.92,0,0,0,20.15,32c10,8.81,23.18,15.82,39.14,20.83s35.87,8.31,58.89,9.67c23.73,1.43,39.77,3.61,49,6.67,8.49,2.8,14.12,7.26,16.77,13.27L287.62,456a18.6,18.6,0,0,0-.68-5.7c-1.63-5.92-6.47-10.14-14.78-12.88-8.76-2.9-24.87-5.07-47.88-6.45-23.39-1.39-43.57-4.71-60-9.87-16.57-5.21-30.29-12.53-40.79-21.76A69.38,69.38,0,0,1,102,365.09,73,73,0,0,1,99.76,353.59Zm-7.1,16.6h0Z" transform="translate(-48.46 -18.55)"/><g class="cls-17"><g class="cls-7"><path class="cls-3" d="M289.88,456.35l-11.1,39a20.73,20.73,0,0,0-.75-6.68q-2.75-10-16.26-14.44t-48.46-6.56q-34.93-2.07-59.43-9.77t-40-21.3a66.8,66.8,0,0,1-20.84-33.11q-4.86-17.67-.41-33.3l11.11-39q-4.45,15.62.41,33.3A66.85,66.85,0,0,0,125,397.6q15.47,13.59,40,21.29t59.44,9.78q35,2.08,48.46,6.55t16.26,14.45a20.38,20.38,0,0,1,.74,6.68" transform="translate(-48.46 -18.55)"/><path d="M278.78,497.63a2.34,2.34,0,0,1-.38,0,2.28,2.28,0,0,1-1.9-2.38,18.31,18.31,0,0,0-.67-5.94c-1.63-5.93-6.46-10.14-14.78-12.89-8.76-2.9-24.87-5.07-47.87-6.44-23.39-1.39-43.58-4.72-60-9.88-16.56-5.2-30.29-12.52-40.78-21.75A69.31,69.31,0,0,1,90.88,404.1c-3.34-12.14-3.48-23.76-.41-34.53l11.09-39v0a2.28,2.28,0,0,1,4.39,1.25h0c-2.83,10-2.69,20.75.42,32.07a64.89,64.89,0,0,0,20.14,32c10,8.8,23.19,15.81,39.15,20.83s35.86,8.3,58.88,9.67c23.74,1.42,39.78,3.6,49,6.66,9.74,3.22,15.71,8.61,17.75,16a22.94,22.94,0,0,1,.82,7.42,2.64,2.64,0,0,1-.08.49L281,496A2.28,2.28,0,0,1,278.78,497.63Zm-179-144-4.91,17.23c-2.83,10-2.69,20.75.42,32.07a64.92,64.92,0,0,0,20.15,32c10,8.81,23.18,15.82,39.14,20.83s35.87,8.31,58.89,9.67c23.73,1.42,39.77,3.61,49,6.67,8.49,2.8,14.12,7.26,16.77,13.27L287.62,456a18.6,18.6,0,0,0-.68-5.7c-1.63-5.92-6.47-10.14-14.78-12.88-8.76-2.9-24.87-5.07-47.88-6.45-23.39-1.39-43.57-4.71-60-9.87-16.57-5.21-30.29-12.53-40.79-21.76A69.38,69.38,0,0,1,102,365.09,73,73,0,0,1,99.76,353.59ZM289.88,456.35h0Z" transform="translate(-48.46 -18.55)"/></g></g></g><path class="cls-12" d="M199.44,269.41q56.31-7.52,96.73,10.46t50.52,54.69l-89,11.86q-8.31-30.21-44.37-25.4-14,1.86-21.54,10t-4.77,18.34q2.88,10.46,16.24,15.42t39.92,5.76a385.52,385.52,0,0,1,47.36,4q65.69,10.35,81.72,55.86l-82.41,25.93a20.38,20.38,0,0,0-.74-6.68q-2.75-10-16.26-14.45t-48.46-6.55q-34.93-2.09-59.44-9.78T125,397.6a66.85,66.85,0,0,1-20.84-33.11q-9.53-34.62,16.67-61.37T199.44,269.41Z" transform="translate(-48.46 -18.55)"/><path d="M289.88,458.63a2.29,2.29,0,0,1-2.27-2.42,18.34,18.34,0,0,0-.67-5.94c-1.63-5.92-6.47-10.14-14.78-12.88-8.76-2.9-24.87-5.07-47.88-6.45-23.39-1.39-43.57-4.71-60-9.87-16.57-5.21-30.29-12.53-40.79-21.76A69.38,69.38,0,0,1,102,365.09c-6.55-23.8-.75-45.19,17.24-63.56,17.75-18.11,44.64-29.68,79.92-34.38h0c37.78-5,70.74-1.46,98,10.63C324.57,290,342,308.91,348.89,334a2.28,2.28,0,0,1-1.9,2.86l-89,11.86a2.3,2.3,0,0,1-2.5-1.65c-5.23-19-18.93-26.81-41.86-23.75-8.72,1.16-15.51,4.28-20.18,9.27-4.52,4.84-5.91,10.14-4.24,16.19,1.73,6.28,6.58,10.82,14.83,13.88,8.65,3.21,21.83,5.1,39.2,5.62a389.8,389.8,0,0,1,47.64,4.07c44.47,7,72.57,26.3,83.52,57.35a2.27,2.27,0,0,1-1.46,2.93l-82.41,25.93A2.37,2.37,0,0,1,289.88,458.63Zm-90.14-187c-34.24,4.56-60.24,15.68-77.26,33.05s-22.27,36.72-16.1,59.16a64.89,64.89,0,0,0,20.14,32c10,8.8,23.19,15.81,39.15,20.83s35.86,8.3,58.88,9.67c23.74,1.42,39.78,3.6,49,6.66,9.74,3.22,15.71,8.61,17.75,16a25.13,25.13,0,0,1,.77,4.2L369.32,429c-10.91-28-37.51-45.59-79.11-52.14a386.25,386.25,0,0,0-47.07-4c-17.86-.53-31.54-2.52-40.64-5.91-9.6-3.55-15.53-9.25-17.65-16.94s-.31-14.5,5.3-20.51c5.41-5.78,13.12-9.37,22.91-10.68,24.47-3.26,40,5.2,46.31,25.14l84.38-11.25c-7-22.43-23.28-39.47-48.51-50.7-26.43-11.75-58.56-15.21-95.5-10.28Zm-.3-2.26h0Z" transform="translate(-48.46 -18.55)"/><polygon class="cls-12" points="636.17 326.39 643.36 352.5 486.9 373.36 636.17 326.39"/><path d="M535.36,394.2a2.28,2.28,0,0,1-.68-4.46l149.26-47a2.3,2.3,0,0,1,2.89,1.57L694,370.45a2.28,2.28,0,0,1-1.9,2.87L535.66,394.18Zm147.7-46.37L561.24,386.17l127.68-17Z" transform="translate(-48.46 -18.55)"/><g class="cls-7"><path class="cls-3" d="M148.44,500.86l-11.11,39q-20.85-17.58-26.81-39.22l11.1-39Q127.59,483.29,148.44,500.86Z" transform="translate(-48.46 -18.55)"/><path d="M137.33,542.15a2.3,2.3,0,0,1-1.47-.54c-14.2-12-23.47-25.54-27.54-40.35a2.33,2.33,0,0,1,0-1.23l11.11-39a2.35,2.35,0,0,1,2.21-1.65,2.27,2.27,0,0,1,2.18,1.67c3.83,13.9,12.6,26.72,26.09,38.08a2.29,2.29,0,0,1,.72,2.37l-11.11,39a2.27,2.27,0,0,1-1.52,1.56A2.22,2.22,0,0,1,137.33,542.15Zm-24.44-41.49c3.64,12.72,11.45,24.53,23.23,35.13l9.72-34.14c-11.31-9.79-19.37-20.63-24-32.31Z" transform="translate(-48.46 -18.55)"/><g class="cls-18"><g class="cls-7"><path class="cls-3" d="M148.44,500.86l-11.11,39q-20.85-17.58-26.81-39.22l11.1-39q6,21.64,26.82,39.21" transform="translate(-48.46 -18.55)"/><path d="M137.33,542.15a2.3,2.3,0,0,1-1.47-.54c-14.2-12-23.47-25.54-27.54-40.35a2.33,2.33,0,0,1,0-1.23l11.11-39a2.35,2.35,0,0,1,2.21-1.65,2.27,2.27,0,0,1,2.18,1.67c3.83,13.9,12.6,26.72,26.09,38.08a2.29,2.29,0,0,1,.72,2.37l-11.11,39a2.27,2.27,0,0,1-1.52,1.56A2.22,2.22,0,0,1,137.33,542.15Zm-24.44-41.49c3.64,12.72,11.45,24.53,23.23,35.13l9.72-34.14c-11.31-9.79-19.37-20.63-24-32.31Z" transform="translate(-48.46 -18.55)"/></g></g></g><path class="cls-12" d="M204.54,450.59q5.31,17.36,20.16,23.7c1.2.51,2.45,1,3.71,1.4l-80,25.17q-20.85-17.57-26.82-39.21Z" transform="translate(-48.46 -18.55)"/><path d="M148.44,503.14a2.27,2.27,0,0,1-1.47-.53c-14.2-12-23.47-25.55-27.54-40.36a2.27,2.27,0,0,1,1.89-2.86l82.92-11.06a2.28,2.28,0,0,1,2.48,1.6c3.32,10.84,9.67,18.33,18.87,22.26,1.14.48,2.33.93,3.54,1.34a2.28,2.28,0,0,1,0,4.34l-80,25.17A2.24,2.24,0,0,1,148.44,503.14Zm-23.87-39.58c4.05,12.6,12.24,24.28,24.39,34.75l72.74-22.9C212.85,471,206.56,463.5,203,453.1Z" transform="translate(-48.46 -18.55)"/><polygon class="cls-4" points="179.95 457.14 168.85 496.14 88.87 521.32 99.98 482.31 179.95 457.14"/><path d="M137.33,542.15a2.28,2.28,0,0,1-2.19-2.91l11.1-39a2.28,2.28,0,0,1,1.51-1.55l80-25.17a2.28,2.28,0,0,1,2.87,2.8l-11.1,39a2.28,2.28,0,0,1-1.51,1.55L138,542A2.07,2.07,0,0,1,137.33,542.15Zm13-39.48-9.61,33.75,74.77-23.53,9.61-33.75Z" transform="translate(-48.46 -18.55)"/><path class="cls-4" d="M381.1,499.69q-1.91,1.74-3.93,3.39c-.44.37-.91.71-1.36,1.07-.92.73-1.84,1.46-2.8,2.16-.56.41-1.13.81-1.7,1.21-.89.63-1.78,1.25-2.7,1.86-.62.41-1.26.81-1.89,1.21-.91.57-1.82,1.14-2.75,1.7s-1.77,1-2.67,1.54l-1,.58c-1.37.75-2.76,1.48-4.19,2.19-.26.14-.54.26-.81.39-1.19.59-2.4,1.16-3.63,1.72l-1.31.58c-1.29.57-2.6,1.12-3.92,1.66l-.71.29c-1.55.62-3.14,1.22-4.74,1.8l-1.29.46c-1.26.44-2.55.88-3.84,1.3l-1.37.44c-1.68.53-3.38,1-5.11,1.54l-.62.17c-1.55.43-3.13.85-4.73,1.25l-1.56.39c-1.47.36-3,.71-4.46,1l-1.15.26q-2.79.6-5.65,1.14l-1.4.25c-1.52.28-3.06.55-4.61.8l-1.69.28c-2,.31-4,.61-6.05.88s-4.24.53-6.34.74l-1.43.15c-2.07.2-4.12.38-6.16.52l-.8.05c-1.94.12-3.87.22-5.79.28l-1.15,0q-3.08.09-6.11.08h-1.27q-3,0-5.95-.13h-.3c-2-.09-4.05-.22-6.07-.37l-1.29-.1q-3-.24-5.88-.59l-.89-.11c-1.8-.22-3.58-.47-5.36-.74l-1-.16q-2.88-.46-5.7-1l-1.23-.25c-1.93-.4-3.85-.82-5.76-1.29q-31.58-7.71-53-25.3l-11.11,39q21.42,17.57,53,25.29c1.91.47,3.83.89,5.77,1.29l1.22.25c1.89.37,3.79.72,5.7,1l1,.15q2.67.42,5.35.75l.89.11q2.92.35,5.88.58l1.3.11c2,.15,4,.28,6.06.36h.32c2,.08,3.94.12,5.93.14h1.27c2,0,4.06,0,6.11-.09l1.16,0c1.91-.07,3.84-.16,5.78-.29.19,0,.39,0,.58,0l.22,0q3.08-.21,6.16-.51L280,573c2.1-.22,4.21-.46,6.34-.74s4.06-.58,6.05-.89l1.69-.27c1.55-.25,3.09-.52,4.61-.8l1.4-.25c1.91-.37,3.8-.75,5.65-1.15l1.15-.25c1.5-.34,3-.68,4.46-1l1.57-.39c1.59-.4,3.17-.82,4.72-1.26l.62-.16q2.59-.75,5.11-1.54l1.37-.45c1.3-.42,2.58-.85,3.84-1.3l1.29-.45q2.42-.87,4.74-1.8l.71-.29c1.33-.54,2.64-1.1,3.92-1.66l1.31-.59c1.23-.56,2.44-1.13,3.64-1.71l.81-.39q2.13-1.07,4.18-2.19l1-.58c.58-.33,1.18-.65,1.75-1,.32-.18.61-.38.92-.56.93-.55,1.85-1.12,2.75-1.7.64-.4,1.27-.8,1.89-1.21.92-.6,1.81-1.23,2.7-1.86.57-.4,1.15-.79,1.7-1.2,1-.71,1.88-1.44,2.8-2.17.46-.35.92-.7,1.36-1.06,1.35-1.11,2.66-2.23,3.93-3.39q15-13.76,19.57-29.74l11.11-39Q396.11,485.94,381.1,499.69Z" transform="translate(-48.46 -18.55)"/><path d="M258.89,576.4h-1.65c-2,0-4-.06-6-.14h-.32c-1.87-.08-3.88-.2-6.14-.37l-1.32-.1c-2.11-.18-4.06-.37-6-.59l-.91-.12c-1.82-.22-3.62-.48-5.42-.76l-1-.15c-1.86-.3-3.81-.65-5.77-1l-1.24-.26c-2.25-.46-4.11-.87-5.85-1.3-21.28-5.2-39.42-13.86-53.92-25.75a2.28,2.28,0,0,1-.74-2.39l11.1-39a2.29,2.29,0,0,1,3.64-1.14c14,11.45,31.5,19.81,52.11,24.84,1.68.42,3.54.83,5.68,1.27l1.21.25c1.92.38,3.81.72,5.62,1l1,.15q2.63.4,5.28.74l.87.11c1.93.23,3.86.42,5.81.58l1.28.1c2.2.16,4.16.28,6,.36h.31c1.93.08,3.89.12,5.86.13h1.25c2,0,4,0,6-.08l1.13,0c1.9-.06,3.81-.16,5.73-.28l.8,0q3-.21,6.09-.51l1.41-.14c2.08-.22,4.17-.46,6.27-.74s4-.57,6-.88l1.67-.27c1.54-.25,3.06-.51,4.57-.79l1.39-.25c1.89-.36,3.75-.73,5.59-1.13l1.14-.26q2.22-.49,4.41-1l1.54-.39c1.58-.4,3.14-.81,4.68-1.24l.6-.16c1.72-.49,3.4-1,5.06-1.52l1.34-.44c1.28-.42,2.55-.84,3.79-1.28l1.27-.45c1.58-.57,3.15-1.16,4.67-1.77l.7-.29c1.31-.53,2.59-1.08,3.86-1.63l1.29-.58q1.81-.82,3.57-1.68l.79-.39c1.4-.7,2.77-1.41,4.12-2.15l1-.57c.88-.5,1.75-1,2.61-1.52s1.81-1.09,2.7-1.66l.21-.13,1.64-1c.9-.6,1.77-1.21,2.64-1.82l.48-.34c.4-.28.8-.56,1.19-.85.93-.68,1.84-1.4,2.74-2.11l.55-.43c.26-.2.52-.4.77-.61,1.4-1.15,2.65-2.23,3.84-3.31h0c9.64-8.84,16-18.49,18.91-28.68a2.28,2.28,0,1,1,4.39,1.25l-11.11,39c-3.14,11-9.94,21.38-20.22,30.8-1.25,1.14-2.56,2.27-4,3.47-.29.24-.58.46-.88.69l-.51.4c-.94.75-1.89,1.49-2.86,2.21l-1.21.86-.53.38c-.91.64-1.82,1.28-2.76,1.89-.59.4-1.19.78-1.8,1.16l-.13.08c-.92.59-1.85,1.17-2.8,1.73l-.38.24-.56.34-1.22.69-1.62.9c-1.39.76-2.81,1.51-4.26,2.23l-.83.4c-1.22.59-2.45,1.17-3.7,1.74l-1.33.59c-1.31.58-2.63,1.14-4,1.69l-.72.3c-1.57.63-3.18,1.23-4.81,1.82l-1.31.47c-1.28.45-2.58.88-3.89,1.31l-1.39.45c-1.7.54-3.42,1.06-5.18,1.56l-.62.17q-2.36.66-4.79,1.27l-1.58.39c-1.49.37-3,.72-4.51,1.05l-1.16.26c-1.87.41-3.77.79-5.7,1.16l-1.41.25c-1.54.28-3.09.55-4.66.81l-1.7.27c-2,.32-4,.62-6.11.9s-4.28.53-6.41.75l-1.43.15c-2.09.2-4.17.38-6.23.52l-.81.05c-2,.12-3.91.22-5.85.29l-1.18,0C262.76,576.37,260.82,576.4,258.89,576.4Zm-91.44-33.19c13.77,11,30.9,19,50.94,23.91,1.69.41,3.5.81,5.69,1.27l1.2.24c1.92.38,3.81.72,5.62,1l1,.15c1.74.27,3.5.51,5.27.73l.88.12c1.92.22,3.86.41,5.8.57l1.28.1c2.22.17,4.17.29,6,.36h.3c2,.08,3.91.12,5.87.14h1.26c2,0,4,0,6-.09l1.14,0q2.85-.11,5.72-.28l.8,0q3-.21,6.09-.51l1.41-.15c2.08-.22,4.17-.45,6.28-.73s4-.57,6-.88l1.67-.27c1.54-.25,3.07-.52,4.57-.79l1.39-.26q2.83-.52,5.59-1.13l1.14-.25c1.48-.33,2.95-.67,4.41-1l1.54-.38c1.58-.4,3.14-.81,4.68-1.24l.6-.17c1.72-.48,3.4-1,5.06-1.52l1.35-.43c1.27-.42,2.54-.85,3.78-1.29l1.28-.45q2.37-.85,4.67-1.77l.69-.29c1.31-.53,2.6-1.07,3.86-1.63l1.29-.57c1.21-.55,2.4-1.11,3.57-1.69l.8-.38q2.1-1.05,4.11-2.15l1.6-.89,1.14-.65.42-.25c.16-.1.31-.21.48-.3.91-.54,1.81-1.1,2.69-1.66l.14-.08,1.72-1.11c.89-.59,1.77-1.2,2.63-1.82l.55-.38,1.12-.8c.93-.69,1.84-1.4,2.74-2.11l.56-.44.77-.61c1.39-1.14,2.64-2.22,3.83-3.31,9.65-8.83,16-18.48,18.92-28.68l4.95-17.41a82.26,82.26,0,0,1-9.68,10.45h0c-1.25,1.14-2.56,2.28-4,3.48l-.88.69-.51.4c-.94.74-1.89,1.49-2.87,2.21-.42.31-.85.61-1.28.91l-.46.32c-.9.64-1.81,1.28-2.75,1.9l-1.72,1.11-.21.13c-.92.58-1.86,1.16-2.81,1.73s-1.8,1.06-2.72,1.57l-1.05.59q-2.1,1.15-4.27,2.23l-.83.4q-1.81.9-3.69,1.74l-1.33.6c-1.31.58-2.64,1.14-4,1.69l-.71.29q-2.37.95-4.82,1.83l-1.3.46q-1.92.68-3.9,1.32l-1.38.45c-1.7.53-3.42,1.06-5.18,1.55l-.63.18c-1.57.43-3.16.86-4.78,1.27l-1.58.39c-1.49.36-3,.71-4.51,1.05l-1.16.26c-1.88.4-3.78.79-5.7,1.15l-1.42.26c-1.53.28-3.09.55-4.65.81l-1.71.27q-3,.48-6.1.89c-2.15.29-4.28.53-6.41.75l-1.44.15c-2.09.2-4.16.38-6.22.52l-.82.05c-2,.13-3.91.22-5.85.29l-1.17,0c-2.07.06-4.14.08-6.18.08h-1.28q-3,0-6-.13H262c-1.87-.08-3.88-.2-6.14-.38l-1.31-.1c-2.12-.17-4.07-.37-6-.59l-.91-.12q-2.72-.33-5.42-.75l-1-.15c-1.86-.31-3.81-.66-5.78-1l-1.24-.25c-2.19-.45-4.11-.88-5.84-1.31-20-4.87-37.19-12.8-51.22-23.6ZM381.1,499.69h0Z" transform="translate(-48.46 -18.55)"/><path class="cls-12" d="M399,434.84c.46,1.38.9,2.79,1.3,4.23q9.46,34.4-19.2,60.62t-83.68,33.55q-36.59,4.88-68.46-2.91-31.58-7.71-53-25.3L257,479.53c8.46,2.44,18,3,28.53,1.59Q303.71,478.69,311,471a18.07,18.07,0,0,0,5-10Z" transform="translate(-48.46 -18.55)"/><path d="M270,537.39a174.55,174.55,0,0,1-41.58-4.85c-21.28-5.19-39.42-13.85-53.92-25.74a2.28,2.28,0,0,1,.76-3.94l81.05-25.51a2.2,2.2,0,0,1,1.32,0c8.17,2.36,17.45,2.87,27.6,1.52,11.52-1.54,19.62-4.72,24.1-9.45a15.82,15.82,0,0,0,4.43-8.78,2.26,2.26,0,0,1,1.57-1.85l83-26.12a2.29,2.29,0,0,1,2.85,1.46c.53,1.59,1,3,1.34,4.35,6.52,23.7-.16,44.86-19.86,62.9-19.38,17.72-47.95,29.2-84.92,34.13A209.54,209.54,0,0,1,270,537.39Zm-89.25-31.48c13.38,10.11,29.76,17.57,48.75,22.2,20.86,5.11,43.61,6.07,67.61,2.87,36-4.8,63.78-15.9,82.45-33s24.65-36.11,18.54-58.33c-.17-.64-.37-1.3-.58-2l-79.51,25a20.87,20.87,0,0,1-5.37,9.83c-5.21,5.51-14.23,9.15-26.81,10.83-10.51,1.4-20.19.9-28.8-1.47Z" transform="translate(-48.46 -18.55)"/><polygon class="cls-19" points="643.36 352.5 632.25 391.51 475.8 412.37 486.9 373.36 643.36 352.5"/><path d="M524.25,433.2a2.28,2.28,0,0,1-2.19-2.9l11.11-39a2.28,2.28,0,0,1,1.89-1.63L691.51,368.8a2.24,2.24,0,0,1,2,.77,2.28,2.28,0,0,1,.47,2.11l-11.11,39a2.28,2.28,0,0,1-1.89,1.63L524.56,433.18A1.67,1.67,0,0,1,524.25,433.2ZM537.14,394,527.4,428.2,678.92,408l9.75-34.22Z" transform="translate(-48.46 -18.55)"/><path class="cls-12" d="M517.15,397.66A67.5,67.5,0,0,0,545.41,425q19.37,10,44.91,6.55,42.1-5.61,58.63-34.8l52.16,36.88q-11,22.43-38.12,38.45t-62.12,20.68q-65.54,8.75-115.55-20.36Q452.8,453.51,435,423.5Z" transform="translate(-48.46 -18.55)"/><path d="M703.36,433.64a2.22,2.22,0,0,0,0-.37,1.48,1.48,0,0,0-.12-.41,1.47,1.47,0,0,0-.15-.34,2.13,2.13,0,0,0-.25-.34,1.85,1.85,0,0,0-.28-.28s-.06-.08-.1-.11l-52.17-36.88a2.25,2.25,0,0,0-1.81-.36,2.29,2.29,0,0,0-1.49,1.1c-10.59,18.71-29.75,30-56.94,33.66-16.48,2.2-31.14.07-43.57-6.32a65.58,65.58,0,0,1-27.32-26.46,2.27,2.27,0,0,0-2.66-1l-82.12,25.84-.16.07-.18.08a2.92,2.92,0,0,0-.37.24l-.13.09a2.38,2.38,0,0,0-.38.45.31.31,0,0,0-.05.1,1.74,1.74,0,0,0-.18.33l0,.12,0,.07-11.11,39a2.29,2.29,0,0,0,.23,1.79c12.05,20.28,29.24,37,51.11,49.72,25.9,15.08,55.25,22.69,87.42,22.69q7,0,14.24-.48c5-.34,10.18-.86,15.34-1.55,23.16-3.09,44-10,62.06-20.44l.91-.54c18.37-10.86,31.5-24.11,39-39.4a3.12,3.12,0,0,0,.15-.39l11.1-39a1.36,1.36,0,0,0,0-.2A2.18,2.18,0,0,0,703.36,433.64Zm-159-6.59c13.27,6.82,28.83,9.1,46.25,6.78,27.64-3.68,47.48-15,59-33.77l48.52,34.31-.26.5c-.22.41-.45.82-.68,1.23s-.52.92-.79,1.37-.49.82-.74,1.22-.57.9-.86,1.35-.52.8-.79,1.2l-.92,1.32-.85,1.18-1,1.3c-.3.38-.6.77-.91,1.15s-.69.85-1,1.28-.64.76-1,1.13-.73.84-1.11,1.26l-1,1.11-1.19,1.24L684,453.29c-.41.41-.83.81-1.26,1.22l-1.1,1.05c-.44.41-.9.81-1.35,1.21l-1.13,1c-.47.41-1,.81-1.44,1.22l-1.16,1c-.5.41-1,.81-1.54,1.22s-.77.61-1.17.91c-.55.42-1.12.83-1.68,1.24l-1.15.84c-.62.44-1.25.88-1.89,1.31-.35.24-.69.49-1,.72q-1.14.76-2.31,1.5l-.75.49c-1,.66-2.11,1.31-3.19,1.95h0l0,0-1.29.73q-3,1.71-6,3.28l-.71.36q-3.07,1.56-6.26,3l-.69.3c-2.15.95-4.32,1.86-6.53,2.71l-.65.25c-2.24.85-4.52,1.67-6.83,2.43l-.57.19c-2.35.76-4.73,1.49-7.15,2.16l-.47.12c-2.46.68-5,1.3-7.49,1.88l-.34.07q-3.87.87-7.84,1.58l-.19,0q-4,.72-8.21,1.28-3.93.53-7.82.91c-.58.06-1.14.09-1.71.14-2.08.19-4.15.37-6.21.5l-.83.05c-2.27.13-4.53.24-6.77.3l-1.14,0c-2.13,0-4.25.06-6.35,0l-1.26,0c-2.06,0-4.12-.1-6.16-.19l-1.25-.07c-2.07-.11-4.11-.26-6.15-.44l-1.1-.09c-2.17-.2-4.33-.45-6.47-.73l-.61-.07a169.21,169.21,0,0,1-20.75-4.1l-1.58-.44c-1.64-.45-3.26-.91-4.87-1.41-.72-.22-1.44-.46-2.15-.69-1.41-.46-2.82-.93-4.22-1.43-.79-.28-1.57-.56-2.35-.86-1.32-.49-2.63-1-3.94-1.53-.8-.32-1.6-.64-2.39-1-1.3-.55-2.58-1.12-3.86-1.7-.77-.35-1.53-.69-2.29-1.05-1.37-.65-2.73-1.33-4.08-2-.64-.32-1.29-.64-1.92-1-2-1-3.93-2.12-5.87-3.24q-2-1.14-3.84-2.31l-1.18-.75c-.86-.55-1.72-1.09-2.56-1.65-.47-.3-.92-.62-1.38-.93-.76-.52-1.52-1-2.26-1.55l-1.44-1-2.09-1.52-1.46-1.13c-.66-.5-1.32-1-2-1.52s-1-.8-1.46-1.19-1.25-1-1.86-1.54l-1.45-1.26c-.59-.51-1.18-1-1.76-1.56s-.95-.87-1.42-1.31-1.14-1.05-1.69-1.59l-1.38-1.35c-.55-.54-1.09-1.08-1.62-1.63s-.9-.93-1.34-1.4-1-1.1-1.55-1.66-.88-1-1.31-1.45-1-1.13-1.48-1.7-.84-1-1.25-1.48-1-1.16-1.43-1.75l-1.2-1.52c-.46-.59-.91-1.18-1.36-1.78l-1.16-1.56c-.44-.6-.87-1.21-1.3-1.83l-1.1-1.59c-.43-.62-.84-1.25-1.25-1.88s-.7-1.07-1-1.62l-.38-.61,77.59-24.41A69.75,69.75,0,0,0,544.37,427.05Zm143.5,44.79c-7.13,14.4-19.63,27-37.15,37.3l-.89.52c-17.49,10.18-37.81,16.86-60.37,19.87-5.05.67-10.11,1.18-15,1.51-36.85,2.49-70.18-4.78-99.06-21.59-20.88-12.14-37.36-28-49-47.27l9.42-33.1c.41.63.83,1.24,1.24,1.85.31.45.6.91.91,1.36.6.87,1.23,1.74,1.85,2.6.21.28.41.58.62.86.84,1.14,1.69,2.26,2.57,3.37l.79,1c.63.78,1.26,1.56,1.9,2.33l1.09,1.26c.57.66,1.14,1.31,1.72,2,.4.45.81.89,1.22,1.33.56.61,1.12,1.22,1.69,1.81s.87.9,1.31,1.35l1.71,1.72,1.39,1.33c.57.56,1.16,1.11,1.74,1.65s1,.88,1.45,1.31,1.19,1.06,1.79,1.59l1.5,1.28c.61.52,1.24,1,1.86,1.54s1,.83,1.53,1.24,1.29,1,1.95,1.51l1.54,1.18c.68.51,1.37,1,2.05,1.5l1.55,1.11c.73.51,1.47,1,2.21,1.51l1.49,1,2.51,1.61,1.29.82q1.92,1.18,3.9,2.34c1.74,1,3.51,2,5.29,2.94.57.31,1.15.6,1.73.89,1.21.63,2.43,1.26,3.66,1.86l2.09,1c1.13.53,2.27,1.06,3.41,1.56l2.24,1q1.66.71,3.36,1.38l2.31.9c1.14.43,2.27.84,3.42,1.25l2.32.82c1.19.4,2.38.77,3.58,1.15.75.23,1.49.48,2.24.7,1.49.44,3,.85,4.5,1.26,1.2.32,2.4.62,3.61.91s2.26.56,3.4.81,2.13.45,3.2.66c.91.19,1.81.37,2.72.54,1.16.22,2.32.41,3.48.6.83.14,1.66.28,2.49.4,1.22.19,2.46.36,3.7.52l2.29.28c1.31.15,2.62.29,3.94.42l2,.17c1.42.12,2.85.24,4.28.33l1.38.07a207.13,207.13,0,0,0,25-.17q3.84-.25,7.76-.66,3.76-.37,7.58-.89c1.47-.19,2.92-.4,4.36-.63l1.29-.21c1-.17,2-.33,3-.51l1.57-.29,2.67-.52,1.64-.35c.85-.18,1.7-.35,2.54-.54l1.73-.42,2.4-.57,1.74-.46,2.33-.62,1.72-.5,2.29-.67c.57-.17,1.14-.36,1.7-.54l2.25-.71,1.66-.57c.75-.26,1.5-.51,2.24-.78l1.63-.6,2.19-.83c.55-.21,1.08-.43,1.62-.65.72-.29,1.43-.57,2.14-.87.54-.22,1.08-.46,1.61-.69l2.09-.91,1.6-.74c.68-.32,1.36-.63,2-1l1.6-.79,2-1,1.62-.86,1.87-1c.55-.3,1.09-.61,1.63-.92l1.33-.75.92-.54c1.42-.83,2.79-1.69,4.15-2.56l1.14-.74c1-.69,2.08-1.38,3.08-2.08l1-.66q1.9-1.35,3.72-2.74l.67-.54c1-.77,2-1.55,2.9-2.34l1-.83c1-.84,1.93-1.68,2.85-2.54l.47-.42c1.06-1,2.09-2,3.08-3l.76-.8c.77-.8,1.51-1.61,2.24-2.43l.75-.85c.91-1.06,1.8-2.12,2.65-3.2l0-.05Z" transform="translate(-48.46 -18.55)"/></svg>
